<svg width="350" height="260" viewBox="0 0 350 260" fill="none" xmlns="http://www.w3.org/2000/svg">
<g clip-path="url(#clip0)">
<path d="M251.863 153.86L254.617 152.16C254.878 151.995 255.136 151.818 255.402 151.652C249.496 150.636 244.115 147.635 240.148 143.144C236.182 138.653 233.867 132.942 233.589 126.956C233.386 122.84 234.165 118.734 235.859 114.977C237.437 111.462 239.767 108.336 242.684 105.819C245.602 103.302 249.036 101.456 252.744 100.411L252.608 111.247L258.561 99.4524C258.585 99.4485 258.61 99.4485 258.634 99.4524C262.084 99.2913 265.531 99.8113 268.78 100.983C272.028 102.154 275.014 103.954 277.567 106.279C280.12 108.604 282.19 111.41 283.659 114.535C285.128 117.661 285.966 121.045 286.127 124.494C286.149 124.996 286.127 125.489 286.127 125.969C288.199 123.606 290.078 121.074 291.324 118.298C293.845 112.677 293.904 106.312 293.694 98.5751C293.296 83.2419 292.636 67.7944 291.774 52.3911C285.559 51.7008 279.793 48.8169 275.513 44.2573C271.234 39.6978 268.72 33.7616 268.424 27.5151C268.387 26.7079 268.398 25.9154 268.424 25.1266C268.424 24.9313 268.424 24.7322 268.453 24.5369C268.505 23.7739 268.575 23.0183 268.693 22.2738C268.693 22.1484 268.737 22.0305 268.759 21.9052C268.867 21.2737 268.996 20.6495 269.146 20.0328C269.205 19.8042 269.261 19.572 269.323 19.3435C269.508 18.6727 269.692 18.0129 269.946 17.3605C270.024 17.143 270.116 16.9329 270.197 16.7191C270.385 16.24 270.588 15.7682 270.801 15.3001C270.916 15.0531 271.026 14.8099 271.148 14.5629C271.177 14.5002 271.203 14.4376 271.236 14.3749C274.011 8.89343 278.62 4.5577 284.26 2.12139C289.9 -0.314917 296.216 -0.697758 302.109 1.03942L301.932 15.1416L307.83 3.49421C312.667 6.26312 316.492 10.5061 318.747 15.6036C321.002 20.701 321.567 26.3858 320.362 31.8276H320.391C320.351 32.0155 320.292 32.1962 320.247 32.3804C320.166 32.7269 320.078 33.0697 319.982 33.4125C319.857 33.8511 319.717 34.2824 319.573 34.7136C319.462 35.0343 319.355 35.3623 319.234 35.6793C319.057 36.1437 318.865 36.5971 318.651 37.0505C318.533 37.3158 318.427 37.5849 318.283 37.8466C317.946 38.5248 317.578 39.1883 317.177 39.837C317.041 40.0618 316.886 40.2756 316.742 40.5004C316.462 40.9354 316.178 41.3666 315.872 41.7868C315.684 42.0448 315.482 42.2918 315.283 42.5461C314.995 42.9147 314.7 43.2833 314.394 43.6187C314.177 43.8656 313.956 44.1089 313.727 44.3559C313.406 44.695 313.075 45.023 312.732 45.3474C312.507 45.5648 312.279 45.7823 312.043 45.9887C311.656 46.3315 311.25 46.6595 310.841 46.9802C310.635 47.1424 310.436 47.3119 310.222 47.4667C309.6 47.9287 308.958 48.3624 308.294 48.7679C308.169 48.8416 308.036 48.9042 307.926 48.978C307.373 49.306 306.82 49.6119 306.226 49.8994C305.979 50.0211 305.721 50.1279 305.467 50.2422C304.992 50.456 304.512 50.6624 304.022 50.8504C303.738 50.9573 303.447 51.0568 303.156 51.1563C302.673 51.3222 302.183 51.4733 301.682 51.6097C301.387 51.6908 301.096 51.7719 300.797 51.8419C300.259 51.9709 299.71 52.0778 299.157 52.1699C299.12 52.1699 299.087 52.1699 299.05 52.192C299.414 58.689 299.737 65.1897 300.019 71.694C301.587 68.4756 303.796 65.6115 306.51 63.2772C309.224 60.943 312.387 59.188 315.804 58.1198C319.221 57.0516 322.82 56.6927 326.38 57.0653C329.941 57.4378 333.388 58.5339 336.51 60.2862L331.862 73.0209L341.423 63.8394C346.541 68.5306 349.59 75.0602 349.9 81.9961C350.022 84.4297 349.797 86.8683 349.233 89.2388C348.032 94.3686 345.317 99.0191 341.44 102.587C337.564 106.155 332.704 108.475 327.493 109.247C322.281 110.019 316.958 109.207 312.213 106.916C307.469 104.625 303.522 100.962 300.885 96.4005C300.885 97.0602 300.933 97.7237 300.952 98.3835C301.125 105.21 301.343 113.702 297.94 121.288C295.637 126.429 291.925 130.605 288.258 134.347C285.873 136.783 283.4 139.138 280.864 141.42C278.37 144.768 275.116 147.474 271.369 149.315C267.204 152.524 262.891 155.529 258.432 158.331L255.722 160.078C253.22 161.629 250.654 163.222 248.137 164.869C248.579 164.825 249.018 164.777 249.467 164.759C255.04 164.498 260.551 166.015 265.205 169.091C269.858 172.167 273.414 176.643 275.357 181.872L258.925 195.248L276.986 191.058C276.981 195.504 275.849 199.877 273.696 203.767C271.543 207.658 268.439 210.939 264.673 213.304C260.908 215.669 256.605 217.042 252.165 217.293C247.726 217.544 243.295 216.665 239.287 214.739C239.693 215.248 240.102 215.753 240.507 216.258C241.314 217.264 242.118 218.263 242.903 219.255C253.592 232.793 256.57 245.649 251.274 255.45L244.838 251.97C249.998 242.431 242.258 230.224 237.16 223.788C236.39 222.815 235.601 221.835 234.805 220.839C227.975 212.362 220.235 202.734 220.43 190.936C220.707 173.17 237.99 162.455 251.863 153.86Z" fill="white"/>
<path d="M167.892 259.357C260.616 259.357 335.784 255.891 335.784 251.617C335.784 247.342 260.616 243.876 167.892 243.876C75.1677 243.876 0 247.342 0 251.617C0 255.891 75.1677 259.357 167.892 259.357Z" fill="#3F3D56"/>
<path d="M303.528 248.73C304.634 246.7 303.381 244.212 301.951 242.398C300.521 240.585 298.777 238.712 298.814 236.394C298.866 233.077 302.386 231.119 305.202 229.361C307.287 228.055 309.211 226.507 310.933 224.75C311.656 224.074 312.254 223.275 312.699 222.391C313.277 221.094 313.263 219.619 313.226 218.197C313.103 213.464 312.87 208.736 312.526 204.013" stroke="#3F3D56" stroke-width="4" stroke-miterlimit="10"/>
<path d="M317.874 203.763C317.833 202.897 317.575 202.055 317.124 201.314C316.673 200.574 316.044 199.958 315.294 199.524L314.136 201.817L314.17 199.045C313.378 198.808 312.541 198.764 311.729 198.918C310.917 199.071 310.154 199.418 309.504 199.928C308.853 200.438 308.335 201.097 307.993 201.849C307.65 202.601 307.493 203.424 307.535 204.249C307.599 205.618 308.205 206.905 309.218 207.827C309.72 208.283 310.307 208.637 310.945 208.867C311.583 209.096 312.261 209.198 312.938 209.166C313.616 209.134 314.281 208.969 314.895 208.68C315.509 208.391 316.059 207.985 316.516 207.483C316.973 206.981 317.326 206.394 317.556 205.756C317.786 205.118 317.887 204.44 317.855 203.763H317.874Z" fill="#0AFFA3"/>
<path d="M308.648 238.779C308.106 239.831 307.22 240.665 306.136 241.141C305.053 241.617 303.838 241.706 302.697 241.394C301.556 241.081 300.556 240.386 299.867 239.424C299.177 238.462 298.839 237.293 298.909 236.111C298.979 234.93 299.453 233.809 300.251 232.935C301.05 232.062 302.124 231.489 303.295 231.314C304.465 231.138 305.66 231.37 306.68 231.971C307.699 232.572 308.481 233.505 308.895 234.614L305.666 237.242L309.219 236.416C309.22 237.238 309.024 238.048 308.648 238.779Z" fill="#0AFFA3"/>
<path d="M306.094 228.72C305.415 228.753 304.736 228.651 304.097 228.421C303.458 228.19 302.87 227.836 302.368 227.378C301.866 226.92 301.459 226.368 301.171 225.752C300.883 225.137 300.72 224.471 300.69 223.792C300.649 222.982 300.802 222.175 301.136 221.437C301.446 220.745 301.903 220.13 302.477 219.635C303.05 219.139 303.724 218.775 304.453 218.569L304.428 220.703L305.6 218.381C306.971 218.317 308.311 218.8 309.326 219.724C310.341 220.649 310.947 221.938 311.011 223.309C311.075 224.68 310.591 226.02 309.667 227.035C308.743 228.05 307.454 228.656 306.083 228.72H306.094Z" fill="#0AFFA3"/>
<path d="M318.652 220.349C317.283 220.414 315.945 219.932 314.932 219.01C313.918 218.088 313.313 216.801 313.248 215.432C313.184 214.064 313.665 212.726 314.588 211.712C315.51 210.699 316.797 210.093 318.165 210.029C319.132 209.981 320.094 210.209 320.937 210.685L320.023 213.191L321.903 211.385C322.911 212.307 323.513 213.592 323.576 214.957C323.599 215.435 323.555 215.914 323.443 216.38C323.185 217.472 322.578 218.451 321.713 219.168C320.848 219.884 319.773 220.299 318.652 220.349Z" fill="#0AFFA3"/>
<path opacity="0.1" d="M317.177 205.127C315.983 205.259 314.822 205.632 313.624 205.705C312.426 205.779 311.11 205.491 310.351 204.559C309.942 204.058 309.739 203.424 309.393 202.878C309.066 202.368 308.62 201.947 308.092 201.651C307.78 202.303 307.608 203.014 307.588 203.737C307.569 204.46 307.701 205.179 307.977 205.847C308.253 206.516 308.667 207.119 309.191 207.617C309.715 208.116 310.338 208.498 311.02 208.74C311.701 208.982 312.426 209.078 313.147 209.022C313.868 208.966 314.569 208.759 315.205 208.415C315.841 208.07 316.397 207.596 316.838 207.022C317.279 206.449 317.594 205.789 317.763 205.086C317.564 205.093 317.369 205.108 317.177 205.127Z" fill="black"/>
<path opacity="0.1" d="M318.652 220.349C317.76 220.394 316.871 220.207 316.073 219.806C315.275 219.405 314.594 218.803 314.098 218.06C313.602 217.317 313.308 216.458 313.243 215.567C313.179 214.676 313.347 213.784 313.731 212.977C314.142 213.255 314.495 213.609 314.77 214.021C315.139 214.577 315.36 215.218 315.795 215.731C316.599 216.678 317.977 216.988 319.227 216.929C320.476 216.87 321.678 216.52 322.913 216.405C323.082 216.405 323.259 216.376 323.432 216.372C323.176 217.465 322.571 218.444 321.708 219.162C320.846 219.879 319.773 220.296 318.652 220.349Z" fill="black"/>
<path opacity="0.1" d="M306.094 228.72C305.415 228.753 304.736 228.651 304.097 228.421C303.458 228.19 302.87 227.836 302.368 227.378C301.866 226.92 301.459 226.368 301.171 225.752C300.883 225.137 300.72 224.471 300.69 223.792C300.649 222.982 300.802 222.175 301.136 221.437C301.565 221.717 301.94 222.073 302.242 222.487C302.644 223.055 302.894 223.707 303.348 224.23C304.221 225.204 305.688 225.546 307.011 225.513C308.335 225.48 309.525 225.17 310.8 225.075C310.486 226.092 309.865 226.988 309.023 227.64C308.181 228.293 307.158 228.67 306.094 228.72Z" fill="black"/>
<path opacity="0.1" d="M308.648 238.779C308.37 239.398 307.972 239.956 307.478 240.422C306.984 240.888 306.403 241.251 305.768 241.493C305.133 241.734 304.457 241.848 303.779 241.827C303.1 241.807 302.432 241.654 301.812 241.375C301.193 241.097 300.635 240.699 300.169 240.205C299.703 239.711 299.34 239.13 299.098 238.495C298.857 237.861 298.744 237.185 298.764 236.506C298.784 235.827 298.937 235.159 299.216 234.54C299.64 234.822 300.023 235.163 300.351 235.553C300.841 236.154 301.166 236.832 301.737 237.396C302.795 238.432 304.501 238.871 306.02 238.9C306.898 238.912 307.775 238.871 308.648 238.779Z" fill="black"/>
<path d="M295.729 246.39C295.729 246.39 299.809 246.265 301.04 245.387C302.271 244.51 307.306 243.463 307.627 244.871C307.948 246.279 313.764 251.875 309.153 251.897C304.542 251.919 298.442 251.159 297.214 250.422C295.987 249.685 295.729 246.39 295.729 246.39Z" fill="#656380"/>
<path opacity="0.2" d="M309.234 251.406C304.627 251.443 298.523 250.669 297.296 249.932C296.363 249.364 295.987 247.319 295.865 246.375H295.729C295.729 246.375 295.987 249.667 297.203 250.43C298.42 251.193 304.531 251.933 309.142 251.904C310.473 251.904 310.933 251.417 310.907 250.717C310.734 251.134 310.226 251.399 309.234 251.406Z" fill="black"/>
<path d="M71.6571 237.36C68.9812 232.406 72.0257 226.339 75.5052 221.923C78.9847 217.507 83.2455 212.915 83.1534 207.286C83.0207 199.2 74.44 194.426 67.5842 190.14C62.497 186.958 57.8042 183.186 53.6037 178.901C51.9193 177.18 50.2864 175.345 49.306 173.148C47.8906 169.985 47.9275 166.392 48.0196 162.927C48.3145 151.378 48.8846 139.851 49.7299 128.346" stroke="#3F3D56" stroke-width="4" stroke-miterlimit="10"/>
<path d="M36.6928 127.716C36.7938 125.606 37.4231 123.555 38.5231 121.752C39.6231 119.949 41.1585 118.451 42.9883 117.395L45.8117 122.979L45.7269 116.219C48.2919 115.464 51.0307 115.543 53.5479 116.445C56.0651 117.347 58.2305 119.026 59.7312 121.239C61.232 123.452 61.9906 126.085 61.8975 128.758C61.8043 131.43 60.8643 134.004 59.213 136.107C57.5618 138.21 55.2848 139.734 52.7109 140.459C50.137 141.184 47.3993 141.072 44.8932 140.139C42.3871 139.207 40.2422 137.502 38.7682 135.271C37.2942 133.04 36.5674 130.398 36.6928 127.727V127.716Z" fill="#0AFFA3"/>
<path d="M59.1843 213.066C60.4523 215.537 62.5009 217.52 65.0119 218.707C67.5228 219.894 70.3556 220.219 73.07 219.631C75.7844 219.042 78.2285 217.574 80.0226 215.454C81.8167 213.333 82.8604 210.68 82.9914 207.906C83.0794 206.162 82.7994 204.418 82.1694 202.79C81.2485 200.401 79.6224 198.349 77.5072 196.906C75.392 195.463 72.8878 194.699 70.3275 194.713C67.7673 194.728 65.2721 195.522 63.1737 196.989C61.0753 198.456 59.473 200.527 58.5798 202.926L66.4565 209.332L57.791 207.316C57.7874 209.317 58.2653 211.289 59.1843 213.066Z" fill="#0AFFA3"/>
<path d="M65.4097 188.584C68.502 188.726 71.5383 187.725 73.9405 185.773C76.3428 183.821 77.9433 181.053 78.4372 177.997C78.9312 174.941 78.2842 171.811 76.6194 169.201C74.9546 166.591 72.3882 164.685 69.4088 163.845L69.4752 169.038L66.6371 163.388H66.6039C63.2621 163.232 59.9953 164.41 57.522 166.662C55.0488 168.915 53.5717 172.058 53.4158 175.4C53.2599 178.742 54.4379 182.009 56.6906 184.482C58.9434 186.955 62.0863 188.432 65.4281 188.588L65.4097 188.584Z" fill="#0AFFA3"/>
<path d="M34.7946 168.212C36.7471 168.308 38.695 167.948 40.4845 167.161C42.274 166.374 43.8562 165.182 45.1061 163.679C46.356 162.176 47.2395 160.403 47.6868 158.501C48.1341 156.598 48.133 154.617 47.6836 152.714C47.2341 150.812 46.3486 149.04 45.097 147.538C43.8454 146.037 42.2619 144.847 40.4715 144.062C38.6811 143.277 36.7328 142.92 34.7805 143.017C32.8281 143.114 30.9251 143.664 29.2216 144.623L31.4331 150.73L26.8663 146.318C25.6455 147.429 24.6557 148.77 23.9537 150.264C23.2517 151.758 22.8511 153.376 22.775 155.024C22.7164 156.191 22.8244 157.36 23.0956 158.496C23.7226 161.169 25.2042 163.563 27.3156 165.317C29.427 167.07 32.0529 168.087 34.7946 168.212Z" fill="#0AFFA3"/>
<path opacity="0.1" d="M38.3884 131.077C41.3003 131.398 44.131 132.301 47.0503 132.482C49.9695 132.662 53.1799 131.966 55.0265 129.695C56.0217 128.471 56.5193 126.923 57.3597 125.589C58.156 124.346 59.2475 123.319 60.5369 122.6C61.3398 124.198 61.7936 125.949 61.8682 127.736C61.9428 129.523 61.6364 131.306 60.9694 132.965C60.3024 134.625 59.29 136.124 57.9995 137.362C56.7089 138.601 55.1698 139.55 53.4841 140.149C51.7984 140.747 50.0048 140.98 48.2222 140.832C46.4397 140.684 44.7091 140.158 43.1451 139.29C41.5812 138.422 40.2198 137.231 39.1512 135.797C38.0826 134.363 37.3314 132.717 36.9473 130.97C37.4375 130.992 37.9167 131.026 38.3884 131.077Z" fill="black"/>
<path opacity="0.1" d="M34.7948 168.212C36.9682 168.313 39.1305 167.849 41.0719 166.867C43.0134 165.886 44.6681 164.418 45.8753 162.608C47.0826 160.798 47.8014 158.707 47.9621 156.538C48.1228 154.368 47.7198 152.193 46.7924 150.225C45.791 150.899 44.9298 151.76 44.2565 152.761C43.3571 154.118 42.8153 155.684 41.7575 156.93C39.7929 159.237 36.4387 159.993 33.3942 159.857C30.3497 159.72 27.412 158.85 24.3822 158.574C23.962 158.537 23.5345 158.508 23.1106 158.496C23.7368 161.166 25.2162 163.559 27.3247 165.312C29.4331 167.066 32.0557 168.084 34.7948 168.212Z" fill="black"/>
<path opacity="0.1" d="M65.4096 188.584C67.5618 188.685 69.7039 188.233 71.6317 187.271C73.5595 186.309 75.2086 184.869 76.4217 183.089C77.6348 181.308 78.3715 179.247 78.5614 177.1C78.7514 174.954 78.3882 172.795 77.5067 170.829C76.4681 171.519 75.5649 172.394 74.8418 173.41C73.8614 174.792 73.2495 176.384 72.1032 177.659C69.9764 180.029 66.4011 180.866 63.176 180.789C60.0541 180.722 57.0464 179.956 53.9429 179.716C54.7112 182.193 56.2242 184.374 58.276 185.961C60.3278 187.548 62.8187 188.464 65.4096 188.584Z" fill="black"/>
<path opacity="0.1" d="M59.1841 213.066C60.4521 215.537 62.5007 217.52 65.0117 218.707C67.5226 219.894 70.3554 220.219 73.0698 219.631C75.7842 219.042 78.2283 217.574 80.0224 215.454C81.8165 213.333 82.8602 210.68 82.9912 207.906C83.0792 206.162 82.7992 204.418 82.1692 202.79C81.1316 203.471 80.2001 204.302 79.4048 205.256C78.2069 206.73 77.4144 208.374 76.0286 209.738C73.4484 212.266 69.2871 213.313 65.5828 213.423C63.4447 213.431 61.308 213.311 59.1841 213.066Z" fill="black"/>
<path d="M158.942 244.724L110.289 254.676L109.183 254.565L66.4268 250.253V196.07L118.766 187.224L156.731 191.647L156.742 191.887L156.746 192.005L158.942 244.724Z" fill="#CC3366"/>
<path opacity="0.1" d="M158.942 244.724L110.289 254.676L109.183 254.565V199.019L156.742 191.887L158.942 244.724Z" fill="black"/>
<path opacity="0.05" d="M156.746 192.005L156.731 192.016L109.183 199.019L66.4268 196.07L118.766 187.224L156.731 191.647L156.742 191.887L156.746 192.005Z" fill="black"/>
<path d="M212.388 246.935L163.734 256.887L162.628 256.777L119.872 252.464V198.282L172.212 189.436L210.176 193.859L210.187 194.098L210.191 194.216L212.388 246.935Z" fill="#3F3D56"/>
<path opacity="0.1" d="M212.388 246.935L163.734 256.887L162.628 256.777V201.231L210.187 194.098L212.388 246.935Z" fill="black"/>
<path opacity="0.05" d="M210.191 194.216L210.176 194.227L162.628 201.231L119.872 198.282L172.212 189.436L210.176 193.859L210.187 194.098L210.191 194.216Z" fill="black"/>
<path d="M178.846 193.859L130.193 203.811L129.087 203.7L86.3308 199.388V145.205L138.67 136.359L176.635 140.782L176.646 141.022L176.65 141.14L178.846 193.859Z" fill="#3F3D56"/>
<path opacity="0.1" d="M178.846 193.859L130.193 203.811L129.087 203.7V148.154L176.646 141.022L178.846 193.859Z" fill="black"/>
<path opacity="0.05" d="M176.65 141.14L176.635 141.151L129.087 148.154L86.3308 145.205L138.67 136.359L176.635 140.782L176.646 141.022L176.65 141.14Z" fill="black"/>
<path d="M206.49 196.129L181.098 201.326L180.52 201.267L158.205 199.015V170.737L185.521 166.119L205.337 168.43L205.344 168.555V168.614L206.49 196.129Z" fill="#3F3D56"/>
<path opacity="0.1" d="M206.49 196.129L181.098 201.326L180.52 201.267V172.278L205.344 168.555L206.49 196.129Z" fill="black"/>
<path opacity="0.05" d="M205.344 168.614L205.337 168.622L180.52 172.278L158.205 170.737L185.521 166.119L205.337 168.43L205.344 168.555V168.614Z" fill="black"/>
<path d="M138.302 141.21L112.91 146.403L112.331 146.348L90.0166 144.096V115.818L117.333 111.199L137.148 113.51L137.155 113.636V113.695L138.302 141.21Z" fill="#3F3D56"/>
<path opacity="0.1" d="M138.302 141.21L112.909 146.403L112.331 146.348V117.358L137.155 113.636L138.302 141.21Z" fill="black"/>
<path opacity="0.05" d="M137.155 113.695L137.148 113.702L112.331 117.358L90.0166 115.818L117.333 111.199L137.148 113.51L137.155 113.636V113.695Z" fill="black"/>
<path d="M182.901 140.104L157.509 145.297L156.93 145.242L134.616 142.99V114.712L161.932 110.094L181.747 112.405L181.754 112.53V112.589L182.901 140.104Z" fill="#CC3366"/>
<path opacity="0.1" d="M182.901 140.104L157.509 145.297L156.93 145.242V116.253L181.754 112.53L182.901 140.104Z" fill="black"/>
<path opacity="0.05" d="M181.754 112.589L181.747 112.596L156.93 116.253L134.616 114.712L161.932 110.094L181.747 112.405L181.754 112.53V112.589Z" fill="black"/>
<path d="M196.17 111.723L170.778 116.916L170.199 116.861L147.885 114.609V86.3307L175.201 81.7122L195.016 84.0233L195.023 84.1486V84.2076L196.17 111.723Z" fill="#3F3D56"/>
<path opacity="0.1" d="M196.17 111.723L170.778 116.916L170.199 116.861V87.8713L195.024 84.1486L196.17 111.723Z" fill="black"/>
<path opacity="0.05" d="M195.023 84.2076L195.016 84.215L170.199 87.8713L147.885 86.3307L175.201 81.7122L195.016 84.0233L195.023 84.1486V84.2076Z" fill="black"/>
<path d="M213.464 53.9133C213.195 56.3092 211.367 58.2406 210.688 60.5479C209.671 64.0311 211.426 67.7723 213.844 70.4998C215.792 72.667 218.152 74.426 220.785 75.675C223.418 76.9239 226.273 77.638 229.184 77.7757C230.039 77.8493 230.901 77.7554 231.72 77.4993C232.45 77.2024 233.107 76.7524 233.648 76.1797C235.461 74.3552 236.438 71.8304 236.825 69.2835C237.212 66.7365 237.065 64.1453 236.913 61.5763C236.913 61.0446 236.816 60.5175 236.626 60.0208C236.379 59.5485 236.039 59.131 235.627 58.7935C234.32 57.5921 232.879 56.5446 231.333 55.6715C230.67 55.3029 229.958 54.9343 229.534 54.2967C229.243 53.7889 229.054 53.2292 228.978 52.6491L228.502 50.2312C228.418 49.534 228.18 48.8642 227.806 48.2703C226.969 47.1424 225.366 46.9876 223.961 46.9323L218.801 46.7296C217.198 46.6669 215.089 46.2062 213.523 46.5232C212.049 46.8143 212.546 48.1634 212.812 49.3871C213.195 50.8671 213.414 52.3851 213.464 53.9133Z" fill="#FFC0C6"/>
<path opacity="0.1" d="M213.464 53.9133C213.195 56.3092 211.367 58.2406 210.688 60.5479C209.671 64.0311 211.426 67.7723 213.844 70.4998C215.792 72.667 218.152 74.426 220.785 75.675C223.418 76.9239 226.273 77.638 229.184 77.7757C230.039 77.8493 230.901 77.7554 231.72 77.4993C232.45 77.2024 233.107 76.7524 233.648 76.1797C235.461 74.3552 236.438 71.8304 236.825 69.2835C237.212 66.7365 237.065 64.1453 236.913 61.5763C236.913 61.0446 236.816 60.5175 236.626 60.0208C236.379 59.5485 236.039 59.131 235.627 58.7935C234.32 57.5921 232.879 56.5446 231.333 55.6715C230.67 55.3029 229.958 54.9343 229.534 54.2967C229.243 53.7889 229.054 53.2292 228.978 52.6491L228.502 50.2312C228.418 49.534 228.18 48.8642 227.806 48.2703C226.969 47.1424 225.366 46.9876 223.961 46.9323L218.801 46.7296C217.198 46.6669 215.089 46.2062 213.523 46.5232C212.049 46.8143 212.546 48.1634 212.812 49.3871C213.195 50.8671 213.414 52.3851 213.464 53.9133Z" fill="black"/>
<path d="M246.235 161.821L244.046 185.824C243.474 192.119 242.892 198.44 241.772 204.655C241.403 206.796 240.931 208.927 240.393 211.039C238.897 216.903 236.726 222.634 236.025 228.646C236.003 228.819 235.985 229.015 235.966 229.173C235.823 230.5 235.697 231.842 235.229 233.08C234.861 233.998 234.341 234.835 233.961 235.741C233.224 237.555 233.106 239.56 233.014 241.525C230.357 240.025 227.447 239.025 224.43 238.576C222.955 238.358 221.352 238.207 220.375 237.102C219.269 235.9 219.398 234.061 219.583 232.446C220.162 227.433 220.74 222.423 221.315 217.415C221.507 215.26 221.876 213.125 222.421 211.031C222.62 210.335 222.859 209.649 223.103 208.964C223.438 208.02 223.777 207.076 224.031 206.107C224.384 204.549 224.628 202.969 224.761 201.378C225.355 196.336 226.07 191.305 226.696 186.266L226.73 186.001C227.669 178.363 228.384 170.689 228.178 162.997C228.149 161.858 228.101 160.719 228.027 159.576C227.924 157.921 227.773 157.044 229.133 156.009C230.648 154.866 232.642 154.066 234.374 153.318C235.307 152.912 245.575 149.263 245.8 150.067C246.277 151.774 246.525 153.536 246.537 155.308C246.558 157.483 246.457 159.658 246.235 161.821Z" fill="#605D82"/>
<path opacity="0.1" d="M241.772 204.655C241.403 206.796 240.931 208.927 240.393 211.039C238.897 216.903 236.726 222.634 236.025 228.646C236.003 228.819 235.985 229.015 235.966 229.173C231.388 222.634 227.533 215.602 223.066 208.993C223.401 208.049 223.74 207.106 223.995 206.136C224.361 204.57 224.617 202.98 224.761 201.378C225.355 196.336 226.07 191.304 226.696 186.266L226.729 186.001C226.988 187.07 227.359 188.109 227.835 189.1C230.836 195.197 237.964 198.278 241.451 204.113C241.566 204.295 241.673 204.475 241.772 204.655Z" fill="black"/>
<path d="M204.625 151.055C204.776 155.942 205.558 160.789 206.339 165.618L207.95 175.569C208.831 181.025 209.752 186.587 212.332 191.47C214.264 195.127 217.043 198.245 219.56 201.522C225.745 209.579 230.393 218.709 236.257 227.002C237.964 229.413 240.4 232.022 243.308 231.517C245.218 231.189 246.604 229.597 248.1 228.373C249.869 226.929 252 225.871 253.393 224.057C254.786 222.244 255.059 219.236 253.172 217.946C252.527 217.507 251.742 217.342 251.012 217.061C248.089 215.956 246.195 213.095 244.993 210.206C243.791 207.316 243.058 204.216 241.454 201.529C237.968 195.694 230.835 192.613 227.835 186.513C226.154 183.1 225.992 179.141 225.867 175.356L225.539 165.658C225.502 164.597 225.476 163.495 225.907 162.525C227.054 159.945 230.518 159.702 233.327 159.374C236.512 159.002 239.598 158.029 242.42 156.506C244.038 155.633 245.616 154.519 246.475 152.898C247.263 151.423 247.37 149.687 247.462 148.014L248.436 130.436C248.52 128.925 248.594 127.358 248.067 125.943C246.729 122.382 242.232 121.218 238.432 121.387C231.363 121.704 224.839 124.745 218.16 126.802C216.505 127.31 214.842 127.767 213.136 128.11C211.662 128.409 209.819 128.287 208.403 128.766C205.867 129.621 205.93 135.172 205.572 137.472C204.835 141.96 204.518 146.508 204.625 151.055Z" fill="#605D82"/>
<path d="M242.35 232.262C242.973 232.892 243.176 233.814 243.338 234.684C244.239 239.511 244.708 244.409 244.739 249.32C244.698 249.778 244.789 250.239 245 250.647C245.177 250.889 245.415 251.08 245.69 251.2C247.492 252.059 249.582 250.861 251.086 249.545C253.869 247.109 256.224 243.836 256.382 240.139C256.423 239.188 256.316 238.226 256.482 237.286C256.725 235.893 257.54 234.68 258.255 233.464C259.478 231.39 260.467 229.187 261.204 226.895C261.476 226.033 261.661 224.949 260.982 224.348C260.745 224.16 260.473 224.018 260.183 223.932L252.037 220.909C251.329 220.648 249.575 225.156 249.298 225.65C248.616 226.855 247.938 227.537 246.571 227.817C245.203 228.097 243.515 227.691 242.21 228.388C239.999 229.564 241.101 231.005 242.35 232.262Z" fill="#535070"/>
<path d="M229.789 235.045C229.638 234.744 229.427 234.477 229.169 234.26C228.793 234.02 228.364 233.875 227.92 233.836C226.372 233.57 224.536 233.397 223.464 234.551C222.461 235.631 222.634 237.389 221.798 238.605C221.532 238.974 221.171 239.306 220.943 239.711C220.659 240.332 220.532 241.013 220.574 241.694C220.53 243.57 220.486 245.454 220.618 247.326C220.725 248.896 220.987 250.544 221.971 251.775C223.549 253.751 226.394 254.034 228.915 254.16L230.961 254.267C231.523 254.333 232.093 254.28 232.634 254.112C232.969 253.958 233.27 253.738 233.518 253.465C233.767 253.192 233.957 252.872 234.079 252.523C235.144 249.877 233.46 247.028 232.42 244.374C231.223 241.318 231.436 237.931 229.789 235.045Z" fill="#535070"/>
<path d="M212.874 40.4046C212.848 40.1363 212.887 39.8657 212.989 39.6158C213.287 39.0887 214.069 39.2472 214.658 39.3799C217.028 39.977 219.527 39.4352 221.971 39.5753C224.415 39.7153 227.164 40.9354 227.655 43.3312C229.428 42.0765 230.955 40.5074 232.163 38.7017C232.841 37.6881 233.43 36.5271 233.338 35.3107C233.206 33.5562 231.735 32.2441 230.39 31.1309L226.335 27.8136C225.801 27.3237 225.185 26.9319 224.514 26.6563C223.578 26.3356 222.553 26.4904 221.566 26.4904C218.617 26.4904 215.454 25.1451 212.826 26.4904C211.721 27.0544 210.899 28.0237 210.103 28.9673L206.479 33.2577C206.205 33.5312 206.005 33.8698 205.897 34.2418C205.794 34.7652 206.063 35.2812 206.159 35.8083C206.328 36.7666 205.915 37.7913 206.232 38.7128C206.759 40.2387 208.617 40.4562 209.752 41.3334C210.173 41.6578 210.836 42.7673 211.341 42.7525C212.229 42.7341 212.849 41.1123 212.874 40.4046Z" fill="#3F3D56"/>
<path d="M219.022 53.0582C225.435 53.0582 230.633 47.86 230.633 41.4477C230.633 35.0354 225.435 29.8372 219.022 29.8372C212.61 29.8372 207.412 35.0354 207.412 41.4477C207.412 47.86 212.61 53.0582 219.022 53.0582Z" fill="#FFC0C6"/>
<path d="M221.742 66.8545C221.349 65.7291 220.608 64.7579 219.627 64.0808C218.646 63.4037 217.475 63.0559 216.284 63.0875C215.942 63.1527 215.588 63.1075 215.274 62.9585C215.096 62.8224 214.953 62.6454 214.857 62.4425C214.153 61.1718 213.586 59.83 213.165 58.4396C212.981 57.8241 212.727 57.098 212.104 56.9395C211.603 56.8105 211.09 57.1348 210.755 57.5292C210.458 57.9524 210.135 58.3574 209.789 58.7418C208.315 60.0467 205.735 58.8561 204.19 60.054C203.936 60.2494 203.726 60.5 203.453 60.6806C203.188 60.8423 202.901 60.9664 202.602 61.0492C199.604 62.0245 196.665 63.1728 193.8 64.4881C194.832 70.6952 195.886 77.0201 198.304 82.8254C199.454 85.5898 200.755 88.2989 201.677 91.1481C203.719 97.462 203.807 104.218 203.833 110.857C203.833 115.398 203.833 120.034 202.358 124.332C202.027 125.305 201.621 126.271 201.529 127.281C201.437 128.291 201.739 129.433 202.569 130.038C203.049 130.354 203.599 130.548 204.172 130.602C206.719 130.97 209.284 130.3 211.791 129.717C218.51 128.162 225.366 127.27 232.203 126.4L243.666 124.926C244.488 124.868 245.293 124.659 246.04 124.31C248.137 123.164 248.336 120.009 247.031 118.003C246.408 117.041 245.527 116.253 245 115.235C244.473 114.218 244.433 112.788 245.336 112.084C247.179 110.646 246.626 107.982 246.714 105.652C246.96 99.1354 246.927 92.6237 246.615 86.1169C246.521 84.7675 246.499 83.4141 246.548 82.0624C246.677 79.7698 247.245 77.5251 247.813 75.2951L251.296 61.5837C250.385 60.1462 248.642 59.2321 246.994 58.8193C245.347 58.4064 243.626 58.2848 242 57.7798C238.683 56.7478 235.705 54.1308 232.229 54.3741C231.965 54.3788 231.706 54.4417 231.47 54.5584C230.688 55.0044 230.81 56.1323 230.762 57.0316C230.651 59.0257 229.184 60.688 227.57 61.8564C225.955 63.0248 224.105 63.8726 222.62 65.2032C222.362 65.3977 222.15 65.6463 221.998 65.9316C221.846 66.2168 221.759 66.5319 221.742 66.8545Z" fill="#3F3D56"/>
<path d="M175.739 79.8619C174.97 80.3619 174.152 80.783 173.299 81.1188C172.488 81.4395 171.622 81.6938 170.958 82.2541C170.63 82.5391 170.354 82.8797 170.144 83.2603C169.751 83.9573 169.552 84.7469 169.569 85.5468C169.585 86.3466 169.816 87.1275 170.237 87.8078C170.658 88.4882 171.253 89.0431 171.962 89.4147C172.67 89.7864 173.466 89.9611 174.265 89.9207C175.33 89.8654 176.336 89.4342 177.313 89.0103L185.503 85.4461C186.889 84.8453 188.385 84.1449 189.041 82.7812C189.117 82.6535 189.145 82.5037 189.122 82.3573C189.059 82.1966 188.938 82.0653 188.783 81.9887C186.938 80.7879 185.323 79.2647 184.017 77.4919C183.682 77.0349 183.28 75.9586 182.794 75.6822C181.061 74.7201 177.129 78.9626 175.739 79.8619Z" fill="#FFC0C6"/>
<path d="M263.286 76.9685L266.305 80.4185C266.953 81.1557 267.602 81.8929 268.192 82.689C269.643 84.6877 270.807 86.88 271.649 89.202C272.305 90.9233 272.851 92.7588 272.622 94.587C272.469 95.5243 272.216 96.4424 271.867 97.3256C271.314 99.0236 270.627 100.675 269.814 102.265C269.134 103.471 268.367 104.625 267.517 105.718C265.179 108.817 262.621 111.742 259.862 114.472C258.83 115.493 258.387 117.148 257.949 118.527C257.119 121.074 255.148 123.06 253.242 124.94C252.629 125.588 251.951 126.171 251.218 126.68C250.121 127.388 248.838 127.752 247.533 127.727C246.963 127.73 246.399 127.613 245.878 127.384C244.573 126.765 243.909 125.257 243.773 123.82C243.653 122.514 243.871 121.198 244.407 120.001C246.139 116.164 250.588 114.502 253.732 111.701C255.575 110.06 256.987 107.996 258.38 105.958C259.324 104.684 260.112 103.302 260.728 101.841C261.428 99.9647 261.156 97.7458 261.771 95.8439C262.029 95.0367 262.508 94.3106 262.77 93.5108C263.032 92.7109 263.12 91.7636 262.63 91.0744C262.263 90.6338 261.793 90.2896 261.262 90.0718C259.254 89.0545 257.005 87.7424 256.622 85.5198C256.468 84.2889 256.79 83.0459 257.521 82.044C258.249 81.0549 259.1 80.163 260.053 79.3902C260.927 78.6014 262.405 77.7278 263.286 76.9685Z" fill="#FFC0C6"/>
<path d="M173.8 84.6757C173.27 83.5994 172.602 82.501 171.526 81.9666C171.002 81.7406 170.438 81.6241 169.867 81.6241C169.297 81.6241 168.733 81.7406 168.209 81.9666C167.166 82.4175 166.189 83.0077 165.304 83.7211L162.702 85.6414C162.112 86.0285 161.59 86.5105 161.158 87.0678C160.745 87.744 160.472 88.496 160.354 89.2794C159.986 91.0744 159.687 92.921 159.945 94.7381C160.358 97.6868 162.127 100.237 164.073 102.478C165.29 103.872 166.793 105.28 168.644 105.342C169.444 105.368 170.332 105.051 170.664 104.325C170.779 104.037 170.84 103.729 170.844 103.418C171.043 100.145 169.871 96.9497 168.507 93.9678C168.139 93.1569 167.741 92.3165 167.77 91.4282C167.759 91.2774 167.798 91.1271 167.881 91.0007C167.998 90.878 168.155 90.801 168.323 90.7832C170.192 90.4146 173.413 91.8668 174.722 89.7917C175.569 88.4205 174.405 85.8957 173.8 84.6757Z" fill="#FFC0C6"/>
<path d="M212.262 36.7519C212.239 36.4834 212.28 36.2131 212.38 35.9631C212.679 35.4323 213.46 35.5945 214.05 35.7272C216.42 36.3243 218.919 35.7825 221.363 35.9226C223.807 36.0626 226.553 37.2827 227.047 39.6785C228.818 38.4218 230.345 36.853 231.554 35.049C232.233 34.0317 232.822 32.8707 232.73 31.6543C232.597 29.8998 231.123 28.5877 229.781 27.4782L225.727 24.1609C225.194 23.6711 224.579 23.2793 223.91 23.0036C222.97 22.6829 221.949 22.8377 220.961 22.8377C218.012 22.8377 214.85 21.4924 212.222 22.8377C211.116 23.4016 210.294 24.371 209.498 25.3146L205.871 29.605C205.598 29.8791 205.399 30.2176 205.292 30.5891C205.189 31.1125 205.458 31.6285 205.554 32.1556C205.724 33.1139 205.311 34.1386 205.628 35.0564C206.155 36.586 208.013 36.8035 209.148 37.6807C209.568 38.0051 210.232 39.1145 210.737 39.0998C211.61 39.0814 212.229 37.4596 212.262 36.7519Z" fill="#3F3D56"/>
<path d="M187.604 68.5684C187.136 68.8722 186.724 69.2551 186.388 69.7C185.964 70.345 185.875 71.1743 185.51 71.8378C184.729 73.29 182.897 73.8097 181.758 75.0003C181.573 75.163 181.445 75.3796 181.389 75.6195C181.382 75.9437 181.491 76.2598 181.695 76.5115L187.202 85.1659C189.045 85.3281 190.792 84.1781 192.628 84.3329C193.31 84.3882 194.014 84.6241 194.67 84.4214C195.139 84.2125 195.578 83.9436 195.978 83.6215C197.084 82.9286 198.529 82.8475 199.447 81.9371C200.364 81.0267 200.442 79.6887 200.431 78.4466C200.447 77.3685 200.337 76.2922 200.103 75.2398C199.292 71.9226 196.752 69.3646 195.16 66.4232C194.382 64.9894 193.962 64.1527 192.322 65.1369C190.682 66.121 189.156 67.4332 187.604 68.5684Z" fill="#3F3D56"/>
<path d="M254.469 64.1933C255.504 64.8653 256.438 65.682 257.241 66.6186C258.078 67.6985 258.553 69.0255 259.36 70.1312C260.168 71.237 261.203 72.0331 262.088 73.021C263.433 74.5174 264.344 76.3382 265.236 78.148C263.052 80.9891 260.673 83.674 258.115 86.1832C257.829 86.5188 257.453 86.7646 257.031 86.8909C256.745 86.9217 256.456 86.8808 256.189 86.7721C255.923 86.6634 255.688 86.4901 255.505 86.268C255.107 85.8552 254.827 85.3392 254.447 84.9079C253.553 83.9855 252.361 83.4096 251.082 83.2824C249.814 83.1589 248.538 83.1404 247.267 83.2272C246.988 83.2602 246.705 83.2129 246.452 83.0908C246.264 82.9615 246.112 82.7865 246.01 82.5821C244.536 80.0462 244.997 76.8616 245.524 73.9645L246.729 67.33C246.905 66.0633 247.243 64.8245 247.735 63.6441C248.192 62.6673 249.21 61.0087 250.47 61.3035C251.731 61.5984 253.404 63.4266 254.469 64.1933Z" fill="#3F3D56"/>
<path d="M149.359 112.828L123.967 118.022L123.389 117.967L101.074 115.714V87.4364L128.39 82.818L148.206 85.1291L148.213 85.2544V85.3134L149.359 112.828Z" fill="#CC3366"/>
<path opacity="0.1" d="M149.359 112.828L123.967 118.022L123.388 117.967V88.9771L148.213 85.2544L149.359 112.828Z" fill="black"/>
<path opacity="0.05" d="M148.213 85.3134L148.206 85.3207L123.389 88.9771L101.074 87.4364L128.39 82.818L148.206 85.1291L148.213 85.2544V85.3134Z" fill="black"/>
<path d="M162.628 84.8158L137.236 90.0128L136.658 89.9539L114.343 87.7018V59.4237L141.659 54.8053L161.475 57.1164L161.482 57.2417V57.3007L162.628 84.8158Z" fill="#3F3D56"/>
<path opacity="0.1" d="M162.628 84.8158L137.236 90.0128L136.658 89.9539V60.9644L161.482 57.2417L162.628 84.8158Z" fill="black"/>
<path opacity="0.05" d="M161.482 57.3007L161.475 57.308L136.658 60.9644L114.343 59.4237L141.659 54.8053L161.475 57.1164L161.482 57.2417V57.3007Z" fill="black"/>
</g>
<defs>
<clipPath id="clip0">
<rect width="350" height="259.357" fill="white"/>
</clipPath>
</defs>
</svg>
