<svg width="360" height="277" viewBox="0 0 360 277" fill="none" xmlns="http://www.w3.org/2000/svg">
<g clip-path="url(#clip0)">
<path d="M359.999 270.861H224.402V271.799H359.999V270.861Z" fill="#3F3D56"/>
<path d="M292.5 273.29L277.79 270.983L283.847 264.637H292.5V273.29Z" fill="#A0616A"/>
<path d="M289.684 276.794L275.133 272.007C274.747 271.88 274.393 271.672 274.095 271.396C273.797 271.12 273.561 270.783 273.405 270.407C273.249 270.032 273.175 269.628 273.189 269.222C273.203 268.816 273.305 268.417 273.486 268.054C273.736 267.555 274.127 267.14 274.612 266.863C275.096 266.586 275.651 266.458 276.208 266.496L279.509 266.719L280.802 265.991C280.939 265.914 281.096 265.882 281.251 265.898C281.407 265.915 281.553 265.979 281.67 266.083C281.787 266.187 281.869 266.324 281.905 266.476C281.94 266.629 281.927 266.788 281.867 266.933L280.674 269.83L292.789 268.965L293.387 273.747C293.446 274.221 293.384 274.703 293.207 275.148C293.03 275.593 292.744 275.985 292.374 276.289C292.005 276.594 291.564 276.799 291.094 276.887C290.624 276.976 290.139 276.944 289.684 276.794Z" fill="#2F2E41"/>
<path d="M332.545 266.044L317.257 270.082C320.073 264.241 321.807 259.073 320.719 255.66L327.93 254.795L332.545 266.044Z" fill="#A0616A"/>
<path d="M331.605 271.171L315.788 272.197C315.368 272.224 314.948 272.161 314.555 272.011C314.162 271.861 313.806 271.628 313.511 271.329C313.216 271.029 312.989 270.669 312.846 270.274C312.702 269.878 312.646 269.457 312.68 269.038C312.727 268.462 312.942 267.913 313.3 267.46C313.658 267.007 314.142 266.669 314.691 266.491L317.946 265.43L318.906 264.231C319.008 264.105 319.146 264.013 319.301 263.969C319.457 263.925 319.622 263.93 319.775 263.984C319.927 264.039 320.059 264.139 320.152 264.272C320.245 264.404 320.294 264.563 320.292 264.724L320.266 267.966L331.562 262.456L333.982 266.816C334.223 267.249 334.35 267.735 334.352 268.23C334.353 268.726 334.23 269.213 333.993 269.648C333.756 270.083 333.412 270.45 332.995 270.717C332.578 270.983 332.1 271.139 331.605 271.171Z" fill="#2F2E41"/>
<path d="M281.545 88.3751C287.439 88.3751 292.217 83.5969 292.217 77.7028C292.217 71.8087 287.439 67.0305 281.545 67.0305C275.65 67.0305 270.872 71.8087 270.872 77.7028C270.872 83.5969 275.65 88.3751 281.545 88.3751Z" fill="#A0616A"/>
<path d="M298.478 91.5976L286.141 100.925C284.148 93.3127 281.755 87.8752 278.619 86.4825L290.956 79.2612L298.478 91.5976Z" fill="#A0616A"/>
<path d="M330.372 254.679L319.841 259.192L295.469 201.722L293.513 265.661L282.982 265.06L271.247 164.864L272.15 159.146L312.018 168.023L312.62 200.218L330.372 254.679Z" fill="#2F2E41"/>
<path d="M269.441 74.5976C269.441 74.5976 276.362 68.2788 278.468 70.9869C280.574 73.6949 281.176 74.2967 282.379 74.2967C283.583 74.2967 286.592 77.6065 286.592 77.6065C286.592 77.6065 288.096 74.5975 289.901 77.0047C291.707 79.4118 292.008 83.0225 292.008 83.0225C292.008 83.0225 298.627 67.677 286.893 64.6681C275.158 61.6592 266.733 70.9869 269.441 74.5976Z" fill="#2F2E41"/>
<path d="M314.726 172.838C309.009 170.334 308.841 172.299 300.584 175.546C290.186 176.836 283.575 177.002 280.274 172.687C278.923 164.121 277.816 155.907 277.133 148.096C276.992 146.486 276.869 144.892 276.766 143.314C275.562 124.939 277.037 108.965 283.734 96.1109L295.77 87.0842L299.697 89.9336C309.075 96.7397 307.616 107.196 308.862 118.717L314.726 172.838Z" fill="#E6E6E6"/>
<path d="M278.319 170.129L272.001 164.713L272.603 159.297H278.319V170.129Z" fill="#A0616A"/>
<path opacity="0.2" d="M294.994 115.819C294.994 115.819 312.77 138.988 300.073 149.519C287.376 160.05 280.274 166.67 280.274 166.67C280.274 166.67 281.027 121.235 294.994 115.819Z" fill="black"/>
<path opacity="0.2" d="M288.097 138.988L277.132 148.096C276.991 146.486 276.869 144.893 276.765 143.315L284.185 110.103L288.097 138.988Z" fill="black"/>
<path d="M280.125 166.52L271.399 159.599L282.833 130.714L283.092 100.605C283.104 99.1991 283.548 97.8312 284.364 96.6864C285.179 95.5415 286.327 94.6749 287.651 94.204C288.678 93.8389 289.777 93.7238 290.858 93.8685C291.938 94.0132 292.968 94.4133 293.863 95.0358C294.758 95.6583 295.491 96.4852 296.003 97.4478C296.514 98.4105 296.788 99.4811 296.803 100.571L297.275 135.528L280.125 166.52Z" fill="#E6E6E6"/>
<path d="M0 230.24V16.5009C0.00101572 15.5709 0.370908 14.6793 1.02852 14.0217C1.68613 13.3641 2.57775 12.9942 3.50775 12.9932H199.474C200.404 12.9942 201.296 13.3641 201.953 14.0217C202.611 14.6793 202.981 15.5709 202.982 16.5009V230.24C202.981 231.17 202.611 232.061 201.953 232.719C201.296 233.377 200.404 233.747 199.474 233.748H3.50775C2.57775 233.747 1.68613 233.377 1.02852 232.719C0.370908 232.061 0.00101572 231.17 0 230.24ZM3.50775 14.3963C2.94975 14.3969 2.41478 14.6188 2.02021 15.0134C1.62565 15.4079 1.40371 15.9429 1.4031 16.5009V230.24C1.40371 230.798 1.62565 231.333 2.02021 231.727C2.41478 232.122 2.94975 232.344 3.50775 232.345H199.474C200.032 232.344 200.567 232.122 200.962 231.727C201.356 231.333 201.578 230.798 201.579 230.24V16.5009C201.578 15.9429 201.356 15.4079 200.962 15.0134C200.567 14.6188 200.032 14.3969 199.474 14.3963H3.50775Z" fill="#E6E6E6"/>
<path d="M136.34 34.7399C137.07 34.7519 137.766 35.0501 138.277 35.5704C138.789 36.0906 139.076 36.7911 139.076 37.5208C139.076 38.2506 138.789 38.9511 138.277 39.4713C137.766 39.9915 137.07 40.2898 136.34 40.3018H66.6129C65.8753 40.3139 65.1632 40.0325 64.6331 39.5195C64.103 39.0066 63.7984 38.304 63.7863 37.5665C63.7742 36.8289 64.0555 36.1168 64.5685 35.5867C65.0815 35.0566 65.784 34.752 66.5216 34.7399C66.552 34.7394 66.5824 34.7394 66.6129 34.7399H136.34Z" fill="#3F3D56"/>
<path d="M50.8003 33.9652C50.8511 34.016 50.8914 34.0764 50.9189 34.1427C50.9464 34.2091 50.9606 34.2803 50.9606 34.3522C50.9606 34.424 50.9464 34.4952 50.9189 34.5616C50.8914 34.628 50.8511 34.6883 50.8003 34.7391L48.4511 37.0883H54.2439C54.3159 37.0881 54.3872 37.1021 54.4538 37.1295C54.5204 37.157 54.5809 37.1972 54.6318 37.2481C54.6828 37.2989 54.7233 37.3593 54.7509 37.4258C54.7784 37.4923 54.7927 37.5636 54.7927 37.6356C54.7927 37.7075 54.7784 37.7788 54.7509 37.8453C54.7233 37.9118 54.6828 37.9722 54.6318 38.023C54.5809 38.0739 54.5204 38.1142 54.4538 38.1416C54.3872 38.169 54.3159 38.183 54.2439 38.1828H48.4511L50.8003 40.532C50.8512 40.5828 50.8916 40.6431 50.9192 40.7095C50.9468 40.776 50.961 40.8472 50.961 40.9191C50.9611 40.991 50.9469 41.0622 50.9194 41.1287C50.8919 41.1951 50.8516 41.2555 50.8007 41.3063C50.7499 41.3572 50.6895 41.3975 50.6231 41.425C50.5566 41.4525 50.4854 41.4667 50.4135 41.4666C50.3416 41.4666 50.2704 41.4524 50.2039 41.4248C50.1375 41.3972 50.0772 41.3568 50.0264 41.3059L46.743 38.0225C46.6404 37.9199 46.5828 37.7807 46.5828 37.6356C46.5828 37.4904 46.6404 37.3512 46.743 37.2486L50.0264 33.9652C50.0772 33.9144 50.1375 33.8741 50.2039 33.8466C50.2703 33.8191 50.3415 33.8049 50.4133 33.8049C50.4852 33.8049 50.5564 33.8191 50.6228 33.8466C50.6892 33.8741 50.7495 33.9144 50.8003 33.9652Z" fill="#E6E6E6"/>
<path d="M152.182 33.9652C152.131 34.016 152.091 34.0764 152.063 34.1427C152.036 34.2091 152.022 34.2803 152.022 34.3522C152.022 34.424 152.036 34.4952 152.063 34.5616C152.091 34.628 152.131 34.6883 152.182 34.7391L154.531 37.0883H148.738C148.666 37.0881 148.595 37.1021 148.528 37.1295C148.462 37.157 148.401 37.1972 148.35 37.2481C148.299 37.2989 148.259 37.3593 148.231 37.4258C148.204 37.4923 148.189 37.5636 148.189 37.6356C148.189 37.7075 148.204 37.7788 148.231 37.8453C148.259 37.9118 148.299 37.9722 148.35 38.023C148.401 38.0739 148.462 38.1142 148.528 38.1416C148.595 38.169 148.666 38.183 148.738 38.1828H154.531L152.182 40.532C152.131 40.5828 152.091 40.6431 152.063 40.7095C152.035 40.776 152.021 40.8472 152.021 40.9191C152.021 40.991 152.035 41.0622 152.063 41.1287C152.09 41.1951 152.131 41.2555 152.181 41.3063C152.232 41.3572 152.293 41.3975 152.359 41.425C152.426 41.4525 152.497 41.4667 152.569 41.4666C152.641 41.4666 152.712 41.4524 152.778 41.4248C152.845 41.3972 152.905 41.3568 152.956 41.3059L156.239 38.0225C156.342 37.9199 156.399 37.7807 156.399 37.6356C156.399 37.4904 156.342 37.3512 156.239 37.2486L152.956 33.9652C152.905 33.9144 152.845 33.8741 152.778 33.8466C152.712 33.8191 152.641 33.8049 152.569 33.8049C152.497 33.8049 152.426 33.8191 152.359 33.8466C152.293 33.8741 152.233 33.9144 152.182 33.9652Z" fill="#E6E6E6"/>
<path d="M62.744 196.259C60.0986 196.259 57.5615 197.31 55.691 199.18C53.8204 201.051 52.7695 203.588 52.7695 206.233C52.7695 208.879 53.8204 211.416 55.691 213.286C57.5615 215.157 60.0986 216.208 62.744 216.208H140.238C142.883 216.208 145.42 215.157 147.291 213.286C149.161 211.416 150.212 208.879 150.212 206.233C150.212 203.588 149.161 201.051 147.291 199.18C145.42 197.31 142.883 196.259 140.238 196.259H62.744Z" fill="#E6E6E6"/>
<path d="M183.751 16.0293C183.751 12.859 184.691 9.75987 186.452 7.12388C188.214 4.48788 190.717 2.43337 193.646 1.22016C196.575 0.00694322 199.798 -0.310487 202.907 0.308006C206.017 0.926498 208.873 2.45313 211.115 4.69486C213.356 6.9366 214.883 9.79273 215.502 12.9021C216.12 16.0115 215.803 19.2344 214.589 22.1634C213.376 25.0923 211.322 27.5958 208.686 29.3571C206.05 31.1184 202.951 32.0585 199.78 32.0585C195.53 32.0537 191.456 30.3634 188.451 27.3583C185.446 24.3533 183.756 20.279 183.751 16.0293Z" fill="#CC3366"/>
<path d="M193.455 14.4477H198.199V9.70414C198.198 9.49628 198.239 9.29038 198.318 9.09824C198.398 8.90611 198.514 8.7315 198.661 8.58439C198.808 8.43729 198.982 8.32059 199.174 8.24097C199.366 8.16134 199.572 8.12036 199.78 8.12036C199.988 8.12036 200.194 8.16134 200.386 8.24097C200.578 8.32059 200.752 8.43729 200.899 8.58439C201.046 8.7315 201.162 8.90611 201.241 9.09824C201.321 9.29038 201.361 9.49628 201.361 9.70414V14.4477H206.105C206.523 14.4487 206.925 14.6157 207.22 14.9121C207.516 15.2085 207.682 15.6101 207.682 16.0289C207.682 16.4476 207.516 16.8492 207.22 17.1456C206.925 17.4421 206.523 17.6091 206.105 17.61H201.361V22.3536C201.36 22.7725 201.194 23.1741 200.897 23.47C200.601 23.766 200.199 23.9322 199.78 23.9322C199.361 23.9322 198.959 23.766 198.663 23.47C198.366 23.1741 198.199 22.7725 198.199 22.3536V17.6101H193.455C193.247 17.6105 193.041 17.57 192.849 17.4908C192.657 17.4115 192.482 17.2951 192.335 17.1482C192.188 17.0014 192.071 16.8269 191.991 16.6348C191.911 16.4427 191.87 16.2368 191.87 16.0289C191.87 15.8209 191.911 15.615 191.991 15.423C192.071 15.2309 192.188 15.0564 192.335 14.9095C192.482 14.7627 192.657 14.6463 192.849 14.567C193.041 14.4878 193.247 14.4472 193.455 14.4477V14.4477Z" fill="white"/>
<path d="M167.664 68.0825L53.261 161.828L53.8538 162.551L168.257 68.806L167.664 68.0825Z" fill="#E6E6E6"/>
<path d="M53.8697 68.0651L53.2749 68.7869L167.648 163.036L168.243 162.314L53.8697 68.0651Z" fill="#E6E6E6"/>
<path d="M51.6805 160.319V70.0525C51.6815 69.1845 52.0268 68.3523 52.6405 67.7386C53.2543 67.1248 54.0864 66.7796 54.9544 66.7786H166.267C167.135 66.7795 167.967 67.1248 168.581 67.7385C169.195 68.3523 169.54 69.1845 169.541 70.0525V160.319C169.54 161.187 169.195 162.019 168.581 162.632C167.967 163.246 167.135 163.591 166.267 163.592H54.9544C54.0864 163.591 53.2543 163.246 52.6405 162.632C52.0268 162.019 51.6815 161.187 51.6805 160.319ZM54.9544 67.7139C54.3344 67.7147 53.74 67.9613 53.3016 68.3997C52.8632 68.8381 52.6166 69.4325 52.6159 70.0524V160.319C52.6166 160.939 52.8632 161.533 53.3016 161.971C53.74 162.41 54.3344 162.656 54.9544 162.657H166.267C166.887 162.656 167.481 162.41 167.92 161.971C168.358 161.533 168.605 160.939 168.605 160.319V70.0525C168.605 69.4325 168.358 68.8381 167.92 68.3997C167.481 67.9613 166.887 67.7147 166.267 67.714L54.9544 67.7139Z" fill="#3F3D56"/>
<path d="M33.4402 176.688V86.4221C33.4412 85.5541 33.7865 84.722 34.4002 84.1082C35.014 83.4945 35.8461 83.1492 36.7141 83.1482H148.027C148.895 83.1492 149.727 83.4945 150.341 84.1082C150.954 84.722 151.3 85.5541 151.301 86.4221V176.688C151.3 177.556 150.954 178.388 150.341 179.002C149.727 179.616 148.895 179.961 148.027 179.962H36.7141C35.8461 179.961 35.014 179.616 34.4002 179.002C33.7865 178.388 33.4412 177.556 33.4402 176.688Z" fill="#CC3366"/>
<path d="M79.6714 157.747H136.5C136.571 157.747 136.642 157.742 136.712 157.73L109.835 111.174C109.671 110.885 109.433 110.643 109.145 110.475C108.857 110.308 108.53 110.219 108.197 110.219C107.864 110.219 107.537 110.308 107.249 110.475C106.961 110.643 106.723 110.885 106.559 111.174L88.5211 142.417L87.6569 143.912L79.6714 157.747Z" fill="white"/>
<path opacity="0.2" d="M79.6714 157.746H99.0738L89.549 143.911L88.8635 142.914L88.5208 142.416L87.6566 143.911L79.6714 157.746Z" fill="black"/>
<path d="M48.0293 157.746H97.181L87.6564 143.911L86.9709 142.915L74.5595 124.885C73.7458 123.703 71.7883 123.63 70.8316 124.662C70.7674 124.733 70.7077 124.807 70.6529 124.885L48.0293 157.746Z" fill="white"/>
<path d="M85.0746 122.2C89.7241 122.2 93.4932 118.431 93.4932 113.782C93.4932 109.132 89.7241 105.363 85.0746 105.363C80.4251 105.363 76.656 109.132 76.656 113.782C76.656 118.431 80.4251 122.2 85.0746 122.2Z" fill="white"/>
<path d="M134.932 99.9851H145.221V89.6957H134.932V99.9851Z" fill="#3F3D56"/>
</g>
<defs>
<clipPath id="clip0">
<rect width="360" height="276.938" fill="white"/>
</clipPath>
</defs>
</svg>
