<svg width="360" height="305" viewBox="0 0 360 305" fill="none" xmlns="http://www.w3.org/2000/svg">
<g clip-path="url(#clip0)">
<path d="M276.456 282.256H113.436C112.425 282.255 111.456 281.853 110.742 281.138C110.027 280.424 109.625 279.455 109.624 278.444V167.127C109.625 166.116 110.027 165.147 110.742 164.433C111.456 163.718 112.425 163.316 113.436 163.315H276.456C277.467 163.316 278.436 163.718 279.15 164.433C279.865 165.147 280.267 166.116 280.268 167.127V278.444C280.267 279.455 279.865 280.424 279.15 281.138C278.436 281.853 277.467 282.255 276.456 282.256Z" fill="white"/>
<path d="M276.456 282.256H113.436C112.425 282.255 111.456 281.853 110.742 281.138C110.027 280.424 109.625 279.455 109.624 278.444V167.127C109.625 166.116 110.027 165.147 110.742 164.433C111.456 163.718 112.425 163.316 113.436 163.315H276.456C277.467 163.316 278.436 163.718 279.15 164.433C279.865 165.147 280.267 166.116 280.268 167.127V278.444C280.267 279.455 279.865 280.424 279.15 281.138C278.436 281.853 277.467 282.255 276.456 282.256ZM113.436 164.162C112.65 164.163 111.896 164.476 111.341 165.032C110.785 165.587 110.472 166.341 110.471 167.127V278.444C110.472 279.23 110.785 279.984 111.341 280.54C111.896 281.095 112.65 281.408 113.436 281.409H276.456C277.242 281.408 277.996 281.095 278.552 280.54C279.107 279.984 279.42 279.23 279.421 278.444V167.127C279.42 166.341 279.107 165.587 278.552 165.032C277.996 164.476 277.242 164.163 276.456 164.162H113.436Z" fill="#3F3D56"/>
<path d="M213.817 281.586H176.075V219.105C176.077 217.623 176.666 216.202 177.714 215.154C178.762 214.107 180.183 213.517 181.665 213.515H208.227C209.709 213.517 211.13 214.106 212.178 215.154C213.226 216.202 213.815 217.623 213.817 219.105V281.586Z" fill="#E6E6E6"/>
<path d="M267.565 139.587H246.012V103.567C246.013 102.556 246.415 101.587 247.13 100.873C247.844 100.158 248.813 99.756 249.824 99.7548H263.753C264.764 99.756 265.733 100.158 266.448 100.873C267.162 101.587 267.564 102.556 267.565 103.567V139.587Z" fill="white"/>
<path d="M267.565 139.587H246.012V103.567C246.013 102.556 246.415 101.587 247.13 100.873C247.844 100.158 248.813 99.756 249.824 99.7548H263.753C264.764 99.756 265.733 100.158 266.448 100.873C267.162 101.587 267.564 102.556 267.565 103.567V139.587ZM246.859 138.74H266.718V103.567C266.717 102.781 266.405 102.027 265.849 101.471C265.293 100.915 264.539 100.603 263.753 100.602H249.824C249.038 100.603 248.284 100.915 247.728 101.471C247.173 102.027 246.86 102.781 246.859 103.567V138.74Z" fill="#3F3D56"/>
<path d="M146.047 154.754C168.969 154.754 187.551 136.172 187.551 113.25C187.551 90.3285 168.969 71.7466 146.047 71.7466C123.125 71.7466 104.543 90.3285 104.543 113.25C104.543 136.172 123.125 154.754 146.047 154.754Z" fill="#F2F2F2"/>
<path d="M257.434 93.4401C253.697 93.3226 250.369 89.9135 250.343 86.1739C250.316 82.4342 253.594 78.9779 257.33 78.8071C265.648 78.4266 272.459 69.4999 270.628 61.3766C268.798 53.2533 258.817 48.1104 251.139 51.3344C245.25 53.8076 239.298 46.0151 240.791 39.8042C242.284 33.5934 247.932 29.4228 253.159 25.7502C258.385 22.0776 263.976 17.7655 265.237 11.5037C266.499 5.24178 260.041 -2.25924 254.351 0.643399" fill="#E6E6E6"/>
<path d="M160.134 231.665H128.254C126.982 231.664 125.763 231.158 124.864 230.259C123.965 229.359 123.459 228.14 123.457 226.868V200.586C123.459 199.314 123.965 198.095 124.864 197.196C125.763 196.297 126.982 195.791 128.254 195.789H160.134C161.406 195.791 162.625 196.297 163.524 197.196C164.424 198.095 164.929 199.314 164.931 200.586V226.868C164.929 228.14 164.424 229.359 163.524 230.258C162.625 231.158 161.406 231.664 160.134 231.665Z" fill="#E6E6E6"/>
<path d="M262.376 231.665H230.495C229.224 231.664 228.004 231.158 227.105 230.258C226.206 229.359 225.7 228.14 225.699 226.868V200.586C225.7 199.314 226.206 198.095 227.105 197.196C228.005 196.297 229.224 195.791 230.495 195.789H262.376C263.647 195.791 264.867 196.297 265.766 197.196C266.665 198.095 267.171 199.314 267.172 200.586V226.868C267.171 228.14 266.665 229.359 265.766 230.258C264.867 231.158 263.647 231.664 262.376 231.665Z" fill="#E6E6E6"/>
<path d="M97.4528 165.605V148.478C97.4528 147.162 97.8006 145.87 98.4609 144.732C99.1212 143.594 100.071 142.651 101.213 141.998L196.373 87.6086C197.555 86.9335 198.898 86.5941 200.258 86.6271C201.618 86.6601 202.943 87.0643 204.09 87.7959L288.989 141.946C290.047 142.621 290.917 143.551 291.52 144.651C292.123 145.75 292.439 146.985 292.439 148.239V165.605C292.439 167.584 291.653 169.482 290.253 170.882C288.853 172.282 286.955 173.068 284.976 173.068H104.916C102.937 173.068 101.039 172.282 99.6388 170.882C98.2392 169.482 97.4528 167.584 97.4528 165.605Z" fill="#CC3366"/>
<path opacity="0.2" d="M284.976 165.443H104.916C102.937 165.443 101.039 164.657 99.6388 163.257C98.2392 161.857 97.4528 159.959 97.4528 157.979V164.756C97.4528 166.736 98.2392 168.634 99.6388 170.034C101.039 171.433 102.937 172.22 104.916 172.22H284.976C286.955 172.22 288.854 171.433 290.253 170.034C291.653 168.634 292.439 166.736 292.439 164.756V157.979C292.439 159.959 291.653 161.857 290.253 163.257C288.854 164.657 286.955 165.443 284.976 165.443Z" fill="black"/>
<path d="M299.595 224.051C299.595 210.917 310.242 179.751 323.376 179.751C336.51 179.751 347.157 210.917 347.157 224.051C347.157 230.359 344.652 236.407 340.192 240.867C335.732 245.327 329.683 247.832 323.376 247.832C317.069 247.832 311.02 245.327 306.561 240.867C302.101 236.407 299.595 230.359 299.595 224.051Z" fill="#F2F2F2"/>
<path d="M323.376 281.751C323.264 281.751 323.156 281.706 323.077 281.627C322.997 281.547 322.953 281.439 322.953 281.327V195.936C322.953 195.823 322.997 195.715 323.077 195.636C323.156 195.557 323.264 195.512 323.376 195.512C323.489 195.512 323.596 195.557 323.676 195.636C323.755 195.715 323.8 195.823 323.8 195.936V281.327C323.8 281.439 323.755 281.547 323.676 281.627C323.596 281.706 323.489 281.751 323.376 281.751Z" fill="#3F3D56"/>
<path d="M323.376 233.803C323.293 233.803 323.212 233.779 323.143 233.733C323.074 233.687 323.019 233.622 322.987 233.546C322.954 233.47 322.945 233.386 322.959 233.304C322.974 233.223 323.012 233.147 323.07 233.087L335.159 220.401C335.197 220.361 335.243 220.329 335.294 220.306C335.345 220.284 335.399 220.271 335.455 220.27C335.511 220.269 335.566 220.278 335.618 220.298C335.67 220.318 335.717 220.349 335.757 220.387C335.798 220.425 335.83 220.471 335.852 220.522C335.875 220.573 335.887 220.628 335.889 220.683C335.89 220.739 335.88 220.794 335.86 220.846C335.84 220.898 335.81 220.945 335.772 220.986L323.683 233.672C323.643 233.713 323.596 233.746 323.543 233.769C323.49 233.791 323.434 233.803 323.376 233.803Z" fill="#3F3D56"/>
<path d="M323.376 212.415C323.27 212.415 323.168 212.375 323.091 212.304L312.643 202.752C312.602 202.715 312.569 202.669 312.545 202.619C312.521 202.568 312.508 202.514 312.505 202.458C312.503 202.403 312.511 202.347 312.53 202.294C312.549 202.242 312.578 202.194 312.616 202.153C312.653 202.112 312.699 202.078 312.749 202.055C312.8 202.031 312.854 202.018 312.91 202.016C312.966 202.013 313.021 202.022 313.074 202.041C313.126 202.06 313.174 202.089 313.215 202.127L323.662 211.679C323.725 211.736 323.769 211.812 323.789 211.895C323.808 211.978 323.802 212.065 323.771 212.145C323.74 212.224 323.686 212.293 323.615 212.341C323.545 212.389 323.462 212.415 323.376 212.415V212.415Z" fill="#3F3D56"/>
<path d="M9.3299 197.919C9.3299 178.599 24.9923 132.752 44.3128 132.752C63.6334 132.752 79.2958 178.599 79.2958 197.919C79.2958 207.197 75.6101 216.096 69.0495 222.656C62.4889 229.217 53.5909 232.902 44.3128 232.902C35.0348 232.902 26.1367 229.217 19.5762 222.656C13.0156 216.096 9.3299 207.197 9.3299 197.919Z" fill="#CC3366"/>
<path d="M44.3128 282.598C44.2005 282.598 44.0928 282.553 44.0133 282.474C43.9339 282.394 43.8893 282.286 43.8893 282.174V156.56C43.8893 156.447 43.9339 156.34 44.0133 156.26C44.0928 156.181 44.2005 156.136 44.3128 156.136C44.4252 156.136 44.5329 156.181 44.6123 156.26C44.6917 156.34 44.7364 156.447 44.7364 156.56V282.174C44.7364 282.286 44.6917 282.394 44.6123 282.474C44.5329 282.553 44.4252 282.598 44.3128 282.598Z" fill="#3F3D56"/>
<path d="M44.3128 212.065C44.2299 212.065 44.1488 212.04 44.0796 211.995C44.0104 211.949 43.9561 211.884 43.9235 211.808C43.8908 211.732 43.8813 211.647 43.896 211.566C43.9107 211.484 43.9491 211.409 44.0063 211.349L61.7895 192.687C61.867 192.606 61.9737 192.559 62.086 192.556C62.1983 192.553 62.3071 192.595 62.3884 192.673C62.4697 192.75 62.5169 192.857 62.5196 192.969C62.5224 193.082 62.4803 193.191 62.4028 193.272L44.6195 211.933C44.5799 211.975 44.5324 212.008 44.4797 212.03C44.4269 212.053 44.3702 212.065 44.3128 212.065Z" fill="#3F3D56"/>
<path d="M44.3126 180.602C44.2069 180.602 44.1049 180.562 44.0269 180.491L28.6586 166.44C28.5757 166.364 28.5263 166.258 28.5213 166.146C28.5163 166.034 28.556 165.924 28.6318 165.841C28.7076 165.758 28.8133 165.709 28.9255 165.704C29.0377 165.699 29.1473 165.739 29.2302 165.815L44.5986 179.866C44.6616 179.923 44.7057 179.999 44.7252 180.082C44.7446 180.165 44.7385 180.252 44.7076 180.332C44.6766 180.411 44.6224 180.48 44.5519 180.528C44.4814 180.576 44.3981 180.602 44.3127 180.602H44.3126Z" fill="#3F3D56"/>
<path d="M306.764 281.709C306.804 281.74 306.846 281.768 306.887 281.798H341.325C342 279.064 342.239 276.327 341.231 273.95C339.794 270.563 335.544 268.449 332.165 269.903C331.364 270.257 330.667 270.809 330.138 271.507C328.818 269.143 326.449 267.361 323.715 267.363C320.29 267.365 317.441 270.166 316.512 273.402C315.015 270.876 312.059 269.11 309.169 269.87C304.337 271.14 302.81 278.653 306.764 281.709Z" fill="#E6E6E6"/>
<path d="M10.9024 282.465C10.9833 282.528 11.0687 282.584 11.1506 282.645H80.6725C82.0347 277.126 82.5158 271.6 80.481 266.802C77.5817 259.965 69.0016 255.697 62.1802 258.633C60.564 259.348 59.1561 260.462 58.0891 261.87C55.4233 257.098 50.6415 253.5 45.1219 253.504C38.2068 253.509 32.4573 259.164 30.5809 265.697C27.5597 260.597 21.5918 257.033 15.7585 258.566C6.00225 261.13 2.92058 276.296 10.9024 282.465Z" fill="#E6E6E6"/>
<path d="M359.998 281.411L0 282.092L0.00160279 282.939L360 282.258L359.998 281.411Z" fill="#3F3D56"/>
<path d="M121.479 264.173C121.565 263.838 121.576 263.489 121.513 263.149C121.449 262.809 121.311 262.488 121.11 262.207C120.908 261.926 120.648 261.693 120.346 261.524C120.045 261.355 119.71 261.253 119.365 261.228L105.915 244.411L102.587 247.513L116.796 263.577C116.791 264.159 116.999 264.722 117.382 265.161C117.765 265.599 118.295 265.882 118.872 265.955C119.45 266.029 120.034 265.888 120.514 265.559C120.995 265.231 121.338 264.738 121.479 264.173V264.173Z" fill="#FFB8B8"/>
<path d="M108.495 247.082L104.244 250.338C104.123 250.431 103.984 250.496 103.835 250.53C103.687 250.564 103.533 250.565 103.384 250.534C103.234 250.503 103.094 250.44 102.971 250.35C102.848 250.259 102.747 250.144 102.673 250.011L100.083 245.343C99.6132 244.721 99.4086 243.939 99.5144 243.167C99.6203 242.394 100.028 241.696 100.648 241.224C101.268 240.752 102.05 240.545 102.823 240.648C103.595 240.752 104.295 241.158 104.769 241.776L108.589 245.48C108.698 245.586 108.783 245.714 108.839 245.856C108.894 245.998 108.918 246.151 108.909 246.303C108.9 246.455 108.858 246.603 108.787 246.738C108.716 246.872 108.616 246.99 108.495 247.082H108.495Z" fill="#3F3D56"/>
<path d="M101.356 236.93C104.342 236.93 106.762 234.51 106.762 231.525C106.762 228.54 104.342 226.12 101.356 226.12C98.371 226.12 95.9509 228.54 95.9509 231.525C95.9509 234.51 98.371 236.93 101.356 236.93Z" fill="#FFB8B8"/>
<path d="M112.895 301.642H115.593L115.336 296.592H111.354L112.895 301.642Z" fill="#FFB8B8"/>
<path d="M112.207 300.761L117.52 300.761H117.521C117.965 300.761 118.406 300.848 118.816 301.018C119.227 301.189 119.601 301.438 119.915 301.753C120.23 302.067 120.479 302.44 120.649 302.851C120.819 303.262 120.907 303.702 120.907 304.147V304.257L112.207 304.257L112.207 300.761Z" fill="#2F2E41"/>
<path d="M84.1273 297.822L86.4229 299.24L88.8583 294.808L86.0807 293.07L84.1273 297.822Z" fill="#FFB8B8"/>
<path d="M84.0047 296.711L88.5254 299.503L88.5256 299.503C88.9039 299.737 89.2325 300.043 89.4926 300.404C89.7527 300.764 89.9392 301.173 90.0415 301.605C90.1437 302.038 90.1597 302.487 90.0886 302.926C90.0174 303.365 89.8605 303.785 89.6268 304.164L89.569 304.257L82.1672 299.685L84.0047 296.711Z" fill="#2F2E41"/>
<path d="M112.7 300.161C112.499 300.161 112.303 300.1 112.138 299.986C111.973 299.872 111.847 299.71 111.776 299.523L102.016 276.188C101.995 276.131 101.959 276.081 101.911 276.043C101.864 276.006 101.806 275.982 101.746 275.974C101.686 275.967 101.625 275.977 101.569 276.002C101.514 276.027 101.467 276.067 101.433 276.117L88.0247 297.239C87.8935 297.436 87.6961 297.579 87.4684 297.642C87.2406 297.705 86.9977 297.685 86.7838 297.584L84.9491 296.728C84.7141 296.617 84.5318 296.419 84.4412 296.175C84.3506 295.932 84.3589 295.663 84.4643 295.425L95.4492 270.939C95.2094 270.355 92.8698 264.364 96.4644 261.404L96.4896 261.388L106.237 257.04L106.483 264.517L116.198 298.226C116.235 298.353 116.246 298.486 116.23 298.617C116.215 298.748 116.173 298.875 116.108 298.99C116.043 299.104 115.955 299.205 115.85 299.286C115.746 299.366 115.626 299.425 115.498 299.458L112.954 300.128C112.871 300.15 112.786 300.161 112.7 300.161Z" fill="#2F2E41"/>
<path d="M106.384 246.102C106.013 244.613 105.487 243.111 104.782 242.418C104.523 242.165 104.279 241.897 104.053 241.615C103.578 241.017 102.982 240.528 102.303 240.181C102.551 240.043 102.697 239.878 102.697 239.7C102.697 239.214 101.613 238.82 100.276 238.82C98.9388 238.82 97.8549 239.214 97.8549 239.7C97.8582 239.757 97.8726 239.812 97.8973 239.863C97.922 239.914 97.9565 239.959 97.9988 239.997C97.1257 240.353 96.367 240.941 95.8054 241.699C95.2438 242.456 94.9008 243.353 94.8138 244.292C94.5011 247.64 94.4098 251.921 95.5056 254.629C96.4247 256.868 96.4978 259.364 95.7112 261.653C95.6579 261.813 95.6514 261.984 95.6925 262.147C95.7335 262.31 95.8205 262.458 95.943 262.573C96.0654 262.688 96.2184 262.766 96.3836 262.796C96.5488 262.827 96.7194 262.81 96.8752 262.747L106.547 258.849C106.71 258.784 106.849 258.671 106.948 258.526C107.046 258.38 107.098 258.209 107.098 258.033V252.113C107.106 250.088 106.866 248.069 106.384 246.102Z" fill="#3F3D56"/>
<path d="M87.8787 270.483C88.2154 270.405 88.5308 270.254 88.8028 270.041C89.0748 269.828 89.2967 269.557 89.4529 269.249C89.6091 268.941 89.6958 268.602 89.7069 268.256C89.718 267.911 89.6532 267.567 89.5171 267.249L97.0846 247.293L93.247 246.302L86.2474 266.053C85.7289 266.317 85.3252 266.762 85.1128 267.304C84.9005 267.846 84.8942 268.447 85.0953 268.993C85.2964 269.539 85.6908 269.992 86.2038 270.267C86.7168 270.542 87.3127 270.619 87.8787 270.483L87.8787 270.483Z" fill="#FFB8B8"/>
<path d="M97.053 251.08L92.2039 248.81C92.0659 248.745 91.9435 248.652 91.8449 248.536C91.7464 248.419 91.674 248.283 91.6328 248.137C91.5915 247.99 91.5824 247.836 91.606 247.686C91.6295 247.535 91.6853 247.392 91.7694 247.265L94.7164 242.814C95.0515 242.111 95.6514 241.569 96.3849 241.308C97.1184 241.046 97.9257 241.086 98.6301 241.418C99.3344 241.75 99.8784 242.348 100.143 243.08C100.408 243.813 100.371 244.62 100.042 245.326L98.5181 250.424C98.4744 250.569 98.3998 250.704 98.2993 250.819C98.1988 250.933 98.0748 251.025 97.9358 251.087C97.7968 251.149 97.646 251.181 97.4936 251.18C97.3413 251.178 97.191 251.144 97.053 251.08Z" fill="#3F3D56"/>
<path d="M106.321 230.195C106.565 230.223 106.812 230.179 107.031 230.066C107.429 229.805 107.39 229.212 107.255 228.755C106.919 227.66 106.312 226.667 105.491 225.867C104.67 225.068 103.66 224.489 102.556 224.182C101.786 223.978 100.813 223.986 100.372 224.649C99.266 223.912 97.9322 223.596 96.6128 223.758C95.2934 223.92 94.0758 224.55 93.1807 225.533C92.306 226.559 91.7229 227.801 91.4923 229.13C91.0304 231.393 89.0523 236.061 90.148 238.094C90.8772 239.447 94.2328 238.393 95.6523 238.982C96.3593 239.29 97.1312 239.418 97.8996 239.356C98.6681 239.294 99.4094 239.043 100.058 238.626C100.692 238.188 101.17 237.558 101.418 236.828C101.667 236.098 101.675 235.308 101.44 234.573C101.192 234.034 100.905 233.512 100.583 233.013C100.259 232.508 100.127 231.903 100.211 231.309C100.41 230.405 104.676 230.161 106.321 230.195Z" fill="#2F2E41"/>
</g>
<defs>
<clipPath id="clip0">
<rect width="360" height="304.257" fill="white"/>
</clipPath>
</defs>
</svg>
