<svg width="360" height="294" viewBox="0 0 360 294" fill="none" xmlns="http://www.w3.org/2000/svg">
<g clip-path="url(#clip0)">
<path opacity="0.1" d="M352.093 292.621C355.136 289.579 351.615 281.125 344.229 273.74C336.844 266.354 328.39 262.833 325.348 265.875C322.306 268.918 325.827 277.371 333.212 284.757C340.598 292.142 349.051 295.663 352.093 292.621Z" fill="#CC3366"/>
<path d="M340.059 280.483C342.369 280.483 344.241 278.032 344.241 275.008C344.241 271.984 342.369 269.532 340.059 269.532C337.75 269.532 335.878 271.984 335.878 275.008C335.878 278.032 337.75 280.483 340.059 280.483Z" fill="#3F3D56"/>
<path d="M340.059 273.792C342.369 273.792 344.241 271.34 344.241 268.317C344.241 265.293 342.369 262.841 340.059 262.841C337.75 262.841 335.878 265.293 335.878 268.317C335.878 271.34 337.75 273.792 340.059 273.792Z" fill="#3F3D56"/>
<path d="M340.059 267.101C342.369 267.101 344.241 264.649 344.241 261.625C344.241 258.601 342.369 256.15 340.059 256.15C337.75 256.15 335.878 258.601 335.878 261.625C335.878 264.649 337.75 267.101 340.059 267.101Z" fill="#3F3D56"/>
<path d="M340.059 260.41C342.369 260.41 344.241 257.958 344.241 254.934C344.241 251.911 342.369 249.459 340.059 249.459C337.75 249.459 335.878 251.911 335.878 254.934C335.878 257.958 337.75 260.41 340.059 260.41Z" fill="#3F3D56"/>
<path d="M340.059 253.719C342.369 253.719 344.241 251.267 344.241 248.243C344.241 245.219 342.369 242.768 340.059 242.768C337.75 242.768 335.878 245.219 335.878 248.243C335.878 251.267 337.75 253.719 340.059 253.719Z" fill="#3F3D56"/>
<path d="M340.059 247.027C342.369 247.027 344.241 244.576 344.241 241.552C344.241 238.528 342.369 236.077 340.059 236.077C337.75 236.077 335.878 238.528 335.878 241.552C335.878 244.576 337.75 247.027 340.059 247.027Z" fill="#3F3D56"/>
<path d="M340.059 240.336C342.369 240.336 344.241 237.885 344.241 234.861C344.241 231.837 342.369 229.386 340.059 229.386C337.75 229.386 335.878 231.837 335.878 234.861C335.878 237.885 337.75 240.336 340.059 240.336Z" fill="#3F3D56"/>
<path d="M355.713 189.072C356.286 188.345 356.806 187.58 357.272 186.781L346.283 184.976L358.168 185.062C359.309 182.582 359.931 179.895 359.998 177.166C360.065 174.437 359.575 171.723 358.558 169.19L342.616 177.463L357.311 166.653C355.935 164.27 354.082 162.197 351.869 160.561C349.655 158.926 347.129 157.764 344.447 157.148C341.765 156.533 338.985 156.476 336.28 156.982C333.575 157.488 331.003 158.546 328.725 160.089C326.447 161.633 324.511 163.63 323.039 165.954C321.566 168.279 320.589 170.882 320.166 173.601C319.744 176.321 319.887 179.098 320.585 181.759C321.284 184.421 322.523 186.91 324.226 189.072C323.335 190.203 322.57 191.428 321.942 192.724L336.205 200.128L321.007 195.023C319.94 198.18 319.677 201.553 320.241 204.837C320.805 208.121 322.178 211.213 324.238 213.833C321.914 216.788 320.468 220.337 320.066 224.074C319.664 227.812 320.322 231.587 321.964 234.968C323.606 238.349 326.167 241.2 329.353 243.195C332.539 245.189 336.222 246.247 339.981 246.247C343.74 246.247 347.424 245.189 350.61 243.195C353.796 241.2 356.357 238.349 357.999 234.968C359.641 231.587 360.299 227.812 359.897 224.074C359.495 220.337 358.049 216.788 355.725 213.833C358.502 210.302 360.011 205.941 360.011 201.449C360.011 196.957 358.502 192.595 355.725 189.064L355.713 189.072Z" fill="#CC3366"/>
<path opacity="0.1" d="M319.939 201.457C319.932 205.95 321.442 210.314 324.226 213.841C321.902 216.796 320.456 220.344 320.054 224.082C319.652 227.819 320.31 231.594 321.952 234.976C323.595 238.357 326.155 241.208 329.341 243.202C332.528 245.197 336.211 246.255 339.97 246.255C343.729 246.255 347.412 245.197 350.598 243.202C353.784 241.208 356.345 238.357 357.987 234.976C359.629 231.594 360.287 227.819 359.885 224.082C359.483 220.344 358.037 216.796 355.713 213.841C358.398 210.435 319.939 199.208 319.939 201.457Z" fill="black"/>
<path d="M330.06 0V280.58L234.974 267.331L119.387 290.911L118.456 291.102L26.4876 265.772V21.8229L121.963 0L226.401 21.8229L230.372 20.9851L330.06 0Z" fill="#444053"/>
<path d="M314.082 15.3228V266.368L229.008 254.514L125.587 275.612L124.753 275.779L42.4651 253.118V34.8465L127.894 15.3228L221.335 34.8465L224.889 34.0983L314.082 15.3228Z" fill="white"/>
<path opacity="0.1" d="M234.974 267.331L119.387 290.911L121.963 0L226.401 21.8229L230.372 20.9851L234.974 267.331Z" fill="black"/>
<g opacity="0.3">
<path opacity="0.3" d="M223.431 53.7779L223.478 135.419H257.382V101.905H315.446L322.266 93.1604" stroke="#444053" stroke-width="3" stroke-miterlimit="10"/>
<path opacity="0.3" d="M34.6711 79.6926H160.737L168.531 76.1853H171.649V154.904H226.206L228.544 161.918V197.38H270.631V241.221" stroke="#444053" stroke-width="3" stroke-miterlimit="10"/>
<path opacity="0.3" d="M188.301 241.221V154.904" stroke="#444053" stroke-width="3" stroke-miterlimit="10"/>
<path opacity="0.3" d="M322.266 218.097H188.301" stroke="#444053" stroke-width="3" stroke-miterlimit="10"/>
<path opacity="0.3" d="M288.713 53.7779V241.221" stroke="#444053" stroke-width="3" stroke-miterlimit="10"/>
<path opacity="0.3" d="M34.2815 201.527H322.266" stroke="#444053" stroke-width="3" stroke-miterlimit="10"/>
<path opacity="0.3" d="M69.3306 241.221V53.7779" stroke="#444053" stroke-width="3" stroke-miterlimit="10"/>
<path opacity="0.3" d="M136.272 53.7779V241.221" stroke="#444053" stroke-width="3" stroke-miterlimit="10"/>
<path opacity="0.3" d="M34.6711 101.126L257.382 101.905" stroke="#444053" stroke-width="3" stroke-miterlimit="10"/>
<path opacity="0.3" d="M99.4891 54.1169V241.221" stroke="#444053" stroke-width="3" stroke-miterlimit="10"/>
<path opacity="0.3" d="M34.2815 144.507H136.272L188.301 201.527" stroke="#444053" stroke-width="3" stroke-miterlimit="10"/>
<path opacity="0.3" d="M199.571 53.7779V154.904" stroke="#444053" stroke-width="3" stroke-miterlimit="10"/>
<path opacity="0.3" d="M188.301 173.017H322.266" stroke="#444053" stroke-width="3" stroke-miterlimit="10"/>
</g>
<path d="M228.349 172.245H188.99V155.099L226.206 154.904L228.544 161.528L228.349 172.245Z" fill="#CC3366"/>
<path d="M208.865 83.3947C203.151 83.3947 197.672 85.6643 193.632 89.7043C189.592 93.7443 187.322 99.2236 187.322 104.937C187.322 116.834 208.865 155.488 208.865 155.488C208.865 155.488 230.407 116.85 230.407 104.937C230.407 99.2236 228.137 93.7443 224.097 89.7043C220.057 85.6643 214.578 83.3947 208.865 83.3947ZM208.865 114.126C206.99 114.126 205.158 113.57 203.599 112.529C202.041 111.487 200.826 110.007 200.109 108.275C199.391 106.544 199.204 104.638 199.569 102.8C199.935 100.961 200.838 99.2726 202.163 97.9471C203.489 96.6217 205.177 95.7191 207.016 95.3534C208.854 94.9877 210.76 95.1754 212.491 95.8927C214.223 96.61 215.703 97.8248 216.745 99.3833C217.786 100.942 218.342 102.774 218.342 104.649C218.341 107.162 217.342 109.571 215.565 111.348C213.788 113.124 211.378 114.122 208.865 114.122V114.126Z" fill="#CC3366"/>
<path opacity="0.1" d="M208.865 83.3947C203.151 83.3947 197.672 85.6643 193.632 89.7043C189.592 93.7443 187.322 99.2236 187.322 104.937C187.322 116.834 208.865 155.488 208.865 155.488C208.865 155.488 230.407 116.85 230.407 104.937C230.407 99.2236 228.137 93.7443 224.097 89.7043C220.057 85.6643 214.578 83.3947 208.865 83.3947ZM208.865 114.126C206.99 114.126 205.158 113.57 203.599 112.529C202.041 111.487 200.826 110.007 200.109 108.275C199.391 106.544 199.204 104.638 199.569 102.8C199.935 100.961 200.838 99.2726 202.163 97.9471C203.489 96.6217 205.177 95.7191 207.016 95.3534C208.854 94.9877 210.76 95.1754 212.491 95.8927C214.223 96.61 215.703 97.8248 216.745 99.3833C217.786 100.942 218.342 102.774 218.342 104.649C218.341 107.162 217.342 109.571 215.565 111.348C213.788 113.124 211.378 114.122 208.865 114.122V114.126Z" fill="black"/>
<path d="M208.865 86.5122C203.151 86.5122 197.672 88.7818 193.632 92.8218C189.592 96.8618 187.322 102.341 187.322 108.055C187.322 119.952 208.865 158.606 208.865 158.606C208.865 158.606 230.407 119.968 230.407 108.055C230.407 102.341 228.137 96.8618 224.097 92.8218C220.057 88.7818 214.578 86.5122 208.865 86.5122ZM208.865 117.244C206.99 117.244 205.158 116.688 203.599 115.646C202.041 114.605 200.826 113.125 200.109 111.393C199.391 109.661 199.204 107.756 199.569 105.917C199.935 104.079 200.838 102.39 202.163 101.065C203.489 99.7392 205.177 98.8366 207.016 98.4709C208.854 98.1052 210.76 98.2929 212.491 99.0102C214.223 99.7275 215.703 100.942 216.745 102.501C217.786 104.059 218.342 105.892 218.342 107.766C218.341 110.279 217.342 112.689 215.565 114.465C213.788 116.242 211.378 117.24 208.865 117.24V117.244Z" fill="#CC3366"/>
<path opacity="0.1" d="M201.563 290.742C208.175 287.894 212.584 283.377 211.411 280.653C210.238 277.929 203.927 278.03 197.315 280.877C190.703 283.725 186.294 288.242 187.467 290.966C188.64 293.689 194.951 293.589 201.563 290.742Z" fill="#CC3366"/>
<path d="M199.286 287.458C200.879 287.458 202.17 285.769 202.17 283.686C202.17 281.603 200.879 279.914 199.286 279.914C197.693 279.914 196.402 281.603 196.402 283.686C196.402 285.769 197.693 287.458 199.286 287.458Z" fill="#3F3D56"/>
<path d="M199.286 282.844C200.879 282.844 202.17 281.156 202.17 279.072C202.17 276.989 200.879 275.3 199.286 275.3C197.693 275.3 196.402 276.989 196.402 279.072C196.402 281.156 197.693 282.844 199.286 282.844Z" fill="#3F3D56"/>
<path d="M199.286 278.234C200.879 278.234 202.17 276.545 202.17 274.462C202.17 272.379 200.879 270.69 199.286 270.69C197.693 270.69 196.402 272.379 196.402 274.462C196.402 276.545 197.693 278.234 199.286 278.234Z" fill="#3F3D56"/>
<path d="M199.286 273.624C200.879 273.624 202.17 271.935 202.17 269.852C202.17 267.768 200.879 266.08 199.286 266.08C197.693 266.08 196.402 267.768 196.402 269.852C196.402 271.935 197.693 273.624 199.286 273.624Z" fill="#3F3D56"/>
<path d="M199.286 269.01C200.879 269.01 202.17 267.321 202.17 265.238C202.17 263.155 200.879 261.466 199.286 261.466C197.693 261.466 196.402 263.155 196.402 265.238C196.402 267.321 197.693 269.01 199.286 269.01Z" fill="#3F3D56"/>
<path d="M199.286 264.4C200.879 264.4 202.17 262.711 202.17 260.628C202.17 258.544 200.879 256.856 199.286 256.856C197.693 256.856 196.402 258.544 196.402 260.628C196.402 262.711 197.693 264.4 199.286 264.4Z" fill="#3F3D56"/>
<path d="M199.286 259.79C200.879 259.79 202.17 258.101 202.17 256.018C202.17 253.934 200.879 252.245 199.286 252.245C197.693 252.245 196.402 253.934 196.402 256.018C196.402 258.101 197.693 259.79 199.286 259.79Z" fill="#3F3D56"/>
<path d="M188.495 224.456C188.102 223.961 187.743 223.441 187.42 222.898L194.995 221.651L186.812 221.713C186.027 220.003 185.599 218.151 185.553 216.271C185.508 214.39 185.846 212.52 186.547 210.774L197.536 216.456L187.404 209.005C188.353 207.363 189.63 205.935 191.155 204.808C192.681 203.682 194.422 202.881 196.27 202.457C198.118 202.033 200.034 201.994 201.898 202.343C203.761 202.692 205.533 203.421 207.103 204.485C208.673 205.549 210.007 206.924 211.021 208.526C212.036 210.128 212.71 211.922 213.001 213.795C213.292 215.669 213.194 217.583 212.713 219.417C212.232 221.251 211.378 222.967 210.205 224.456C210.813 225.237 211.336 226.081 211.764 226.974L201.94 232.083L212.423 228.575C213.159 230.751 213.341 233.076 212.952 235.34C212.564 237.604 211.617 239.735 210.197 241.541C211.8 243.577 212.796 246.023 213.074 248.6C213.351 251.176 212.898 253.778 211.766 256.109C210.634 258.44 208.869 260.405 206.673 261.78C204.477 263.155 201.938 263.885 199.346 263.885C196.755 263.885 194.216 263.155 192.02 261.78C189.824 260.405 188.059 258.44 186.927 256.109C185.795 253.778 185.341 251.176 185.619 248.6C185.896 246.023 186.893 243.577 188.495 241.541C186.582 239.107 185.541 236.1 185.541 233.004C185.541 229.908 186.582 226.902 188.495 224.468V224.456Z" fill="#CC3366"/>
<path opacity="0.1" d="M213.151 232.979C213.157 236.077 212.116 239.085 210.197 241.517C211.8 243.554 212.796 246 213.074 248.576C213.351 251.153 212.898 253.755 211.766 256.086C210.634 258.417 208.869 260.382 206.673 261.757C204.477 263.132 201.938 263.861 199.346 263.861C196.755 263.861 194.216 263.132 192.02 261.757C189.824 260.382 188.059 258.417 186.927 256.086C185.795 253.755 185.341 251.153 185.619 248.576C185.896 246 186.893 243.554 188.495 241.517C186.644 239.179 213.151 231.444 213.151 232.979Z" fill="black"/>
<path opacity="0.1" d="M32.1537 284.047C35.1959 281.005 31.6749 272.551 24.2893 265.166C16.9038 257.78 8.45044 254.259 5.40826 257.301C2.36608 260.344 5.88707 268.797 13.2726 276.183C20.6582 283.568 29.1115 287.089 32.1537 284.047Z" fill="#CC3366"/>
<path d="M20.1199 271.91C22.4293 271.91 24.3014 269.458 24.3014 266.434C24.3014 263.41 22.4293 260.959 20.1199 260.959C17.8106 260.959 15.9385 263.41 15.9385 266.434C15.9385 269.458 17.8106 271.91 20.1199 271.91Z" fill="#3F3D56"/>
<path d="M20.1199 265.218C22.4293 265.218 24.3014 262.767 24.3014 259.743C24.3014 256.719 22.4293 254.268 20.1199 254.268C17.8106 254.268 15.9385 256.719 15.9385 259.743C15.9385 262.767 17.8106 265.218 20.1199 265.218Z" fill="#3F3D56"/>
<path d="M20.1199 258.527C22.4293 258.527 24.3014 256.076 24.3014 253.052C24.3014 250.028 22.4293 247.577 20.1199 247.577C17.8106 247.577 15.9385 250.028 15.9385 253.052C15.9385 256.076 17.8106 258.527 20.1199 258.527Z" fill="#3F3D56"/>
<path d="M20.1199 251.836C22.4293 251.836 24.3014 249.385 24.3014 246.361C24.3014 243.337 22.4293 240.886 20.1199 240.886C17.8106 240.886 15.9385 243.337 15.9385 246.361C15.9385 249.385 17.8106 251.836 20.1199 251.836Z" fill="#3F3D56"/>
<path d="M20.1199 245.145C22.4293 245.145 24.3014 242.694 24.3014 239.67C24.3014 236.646 22.4293 234.195 20.1199 234.195C17.8106 234.195 15.9385 236.646 15.9385 239.67C15.9385 242.694 17.8106 245.145 20.1199 245.145Z" fill="#3F3D56"/>
<path d="M20.1199 238.454C22.4293 238.454 24.3014 236.003 24.3014 232.979C24.3014 229.955 22.4293 227.504 20.1199 227.504C17.8106 227.504 15.9385 229.955 15.9385 232.979C15.9385 236.003 17.8106 238.454 20.1199 238.454Z" fill="#3F3D56"/>
<path d="M20.1199 231.763C22.4293 231.763 24.3014 229.312 24.3014 226.288C24.3014 223.264 22.4293 220.813 20.1199 220.813C17.8106 220.813 15.9385 223.264 15.9385 226.288C15.9385 229.312 17.8106 231.763 20.1199 231.763Z" fill="#3F3D56"/>
<path d="M35.774 180.499C36.3461 179.772 36.867 179.006 37.3327 178.207L26.3433 176.403L38.229 176.489C39.3692 174.009 39.9918 171.322 40.0588 168.593C40.1258 165.864 39.6358 163.15 38.6187 160.617L22.6763 168.89L37.3717 158.08C35.9952 155.697 34.1425 153.623 31.9292 151.988C29.716 150.353 27.1895 149.191 24.5075 148.575C21.8255 147.959 19.0453 147.903 16.3404 148.409C13.6355 148.915 11.0638 149.972 8.78573 151.516C6.50765 153.06 4.57201 155.056 3.09951 157.381C1.627 159.706 0.649194 162.309 0.227071 165.028C-0.195052 167.747 -0.052443 170.524 0.645998 173.186C1.34444 175.848 2.58374 178.337 4.28663 180.499C3.39581 181.63 2.63014 182.854 2.00301 184.15L16.2658 191.554L1.06774 186.449C0.000593877 189.606 -0.262865 192.979 0.301192 196.264C0.865248 199.548 2.23903 202.64 4.29832 205.26C1.97436 208.215 0.528692 211.763 0.126597 215.501C-0.275498 219.238 0.382206 223.013 2.02452 226.395C3.66683 229.776 6.22746 232.627 9.41364 234.621C12.5998 236.616 16.283 237.674 20.042 237.674C23.801 237.674 27.4841 236.616 30.6703 234.621C33.8565 232.627 36.4171 229.776 38.0594 226.395C39.7018 223.013 40.3595 219.238 39.9574 215.501C39.5553 211.763 38.1096 208.215 35.7856 205.26C38.5624 201.729 40.072 197.367 40.072 192.875C40.072 188.384 38.5624 184.022 35.7856 180.491L35.774 180.499Z" fill="#CC3366"/>
<path opacity="0.1" d="M-2.49443e-06 192.883C-0.00753334 197.377 1.503 201.741 4.28664 205.268C1.96269 208.222 0.517016 211.771 0.114921 215.509C-0.287174 219.246 0.37053 223.021 2.01284 226.403C3.65515 229.784 6.21578 232.635 9.40197 234.629C12.5882 236.624 16.2713 237.682 20.0303 237.682C23.7893 237.682 27.4725 236.624 30.6586 234.629C33.8448 232.635 36.4055 229.784 38.0478 226.403C39.6901 223.021 40.3478 219.246 39.9457 215.509C39.5436 211.771 38.0979 208.222 35.774 205.268C38.459 201.862 -2.49443e-06 190.635 -2.49443e-06 192.883Z" fill="black"/>
</g>
<defs>
<clipPath id="clip0">
<rect width="360" height="293.717" fill="white"/>
</clipPath>
</defs>
</svg>
