<svg width="360" height="325" viewBox="0 0 360 325" fill="none" xmlns="http://www.w3.org/2000/svg">
<g clip-path="url(#clip0)">
<path d="M223.674 188.596H91.8102C87.3386 188.591 83.0515 186.812 79.8895 183.651C76.7276 180.489 74.949 176.201 74.9439 171.73V16.8663C74.949 12.3946 76.7276 8.10756 79.8895 4.94561C83.0515 1.78366 87.3386 0.0050512 91.8102 0H214.488L240.541 20.7655V171.73C240.535 176.201 238.757 180.489 235.595 183.651C232.433 186.812 228.146 188.591 223.674 188.596Z" fill="#E6E6E6"/>
<path d="M91.8102 4.85545C88.6258 4.85904 85.5729 6.12562 83.3212 8.37732C81.0695 10.629 79.8029 13.6819 79.7993 16.8663V171.73C79.8029 174.914 81.0695 177.967 83.3212 180.219C85.5729 182.471 88.6258 183.737 91.8102 183.741H223.674C226.859 183.737 229.911 182.471 232.163 180.219C234.415 177.967 235.681 174.914 235.685 171.73V23.1046L212.79 4.85545H91.8102Z" fill="white"/>
<path d="M198.027 49.8856H137.991C137.622 49.8856 137.257 49.813 136.916 49.6718C136.575 49.5307 136.266 49.3238 136.005 49.063C135.744 48.8021 135.537 48.4925 135.396 48.1518C135.255 47.811 135.182 47.4457 135.182 47.0769C135.182 46.7081 135.255 46.3428 135.396 46.0021C135.537 45.6613 135.744 45.3517 136.005 45.0909C136.266 44.83 136.575 44.6232 136.916 44.482C137.257 44.3409 137.622 44.2682 137.991 44.2682H198.027C198.395 44.2682 198.761 44.3409 199.101 44.482C199.442 44.6232 199.752 44.83 200.013 45.0909C200.274 45.3517 200.48 45.6613 200.622 46.0021C200.763 46.3428 200.835 46.7081 200.835 47.0769C200.835 47.4457 200.763 47.811 200.622 48.1518C200.48 48.4925 200.274 48.8021 200.013 49.063C199.752 49.3238 199.442 49.5307 199.101 49.6718C198.761 49.813 198.395 49.8856 198.027 49.8856Z" fill="#CCCCCC"/>
<path d="M209.613 59.3649H137.991C137.246 59.3649 136.532 59.069 136.005 58.5423C135.478 58.0156 135.182 57.3012 135.182 56.5563C135.182 55.8113 135.478 55.0969 136.005 54.5702C136.532 54.0435 137.246 53.7476 137.991 53.7476H209.613C210.357 53.7476 211.072 54.0435 211.599 54.5702C212.125 55.0969 212.421 55.8113 212.421 56.5563C212.421 57.3012 212.125 58.0156 211.599 58.5423C211.072 59.069 210.357 59.3649 209.613 59.3649Z" fill="#CCCCCC"/>
<path d="M198.027 92.3671H137.991C137.246 92.3671 136.532 92.0712 136.005 91.5445C135.478 91.0177 135.182 90.3033 135.182 89.5584C135.182 88.8135 135.478 88.0991 136.005 87.5724C136.532 87.0456 137.246 86.7497 137.991 86.7497H198.027C198.772 86.7497 199.486 87.0456 200.013 87.5724C200.539 88.0991 200.835 88.8135 200.835 89.5584C200.835 90.3033 200.539 91.0177 200.013 91.5445C199.486 92.0712 198.772 92.3671 198.027 92.3671Z" fill="#CCCCCC"/>
<path d="M209.613 101.846H137.991C137.246 101.846 136.532 101.551 136.005 101.024C135.478 100.497 135.182 99.7827 135.182 99.0377C135.182 98.2928 135.478 97.5784 136.005 97.0517C136.532 96.5249 137.246 96.229 137.991 96.229H209.613C210.357 96.229 211.072 96.5249 211.599 97.0517C212.125 97.5784 212.421 98.2928 212.421 99.0377C212.421 99.7827 212.125 100.497 211.599 101.024C211.072 101.551 210.357 101.846 209.613 101.846Z" fill="#CCCCCC"/>
<path d="M198.027 134.849H137.991C137.246 134.849 136.532 134.553 136.005 134.026C135.478 133.499 135.182 132.785 135.182 132.04C135.182 131.295 135.478 130.581 136.005 130.054C136.532 129.527 137.246 129.231 137.991 129.231H198.027C198.772 129.231 199.486 129.527 200.013 130.054C200.539 130.581 200.835 131.295 200.835 132.04C200.835 132.785 200.539 133.499 200.013 134.026C199.486 134.553 198.772 134.849 198.027 134.849Z" fill="#CCCCCC"/>
<path d="M209.613 144.328H137.991C137.246 144.328 136.532 144.032 136.005 143.505C135.478 142.979 135.182 142.264 135.182 141.519C135.182 140.774 135.478 140.06 136.005 139.533C136.532 139.006 137.246 138.711 137.991 138.711H209.613C210.357 138.711 211.072 139.006 211.599 139.533C212.125 140.06 212.421 140.774 212.421 141.519C212.421 142.264 212.125 142.979 211.599 143.505C211.072 144.032 210.357 144.328 209.613 144.328Z" fill="#CCCCCC"/>
<path d="M112.99 61.7438C118.473 61.7438 122.918 57.2992 122.918 51.8166C122.918 46.3339 118.473 41.8894 112.99 41.8894C107.508 41.8894 103.063 46.3339 103.063 51.8166C103.063 57.2992 107.508 61.7438 112.99 61.7438Z" fill="#F50057"/>
<path d="M112.007 55.6035C111.783 55.6039 111.566 55.5316 111.387 55.3976L111.376 55.3893L109.043 53.6046C108.825 53.4372 108.683 53.1902 108.647 52.9177C108.611 52.6452 108.685 52.3697 108.852 52.1516C109.019 51.9335 109.266 51.7907 109.538 51.7546C109.811 51.7185 110.087 51.792 110.305 51.959L111.816 53.1179L115.387 48.4592C115.47 48.3512 115.573 48.2606 115.691 48.1925C115.809 48.1244 115.939 48.0801 116.074 48.0623C116.209 48.0445 116.346 48.0534 116.477 48.0886C116.609 48.1238 116.732 48.1845 116.84 48.2673L116.84 48.2675L116.818 48.2983L116.841 48.2675C117.059 48.435 117.201 48.682 117.237 48.9545C117.273 49.227 117.199 49.5026 117.032 49.7208L112.832 55.1979C112.735 55.3241 112.61 55.4263 112.467 55.4964C112.324 55.5665 112.167 55.6027 112.008 55.6023L112.007 55.6035Z" fill="white"/>
<path d="M114.013 104.225C119.495 104.225 123.94 99.7807 123.94 94.2981C123.94 88.8154 119.495 84.3709 114.013 84.3709C108.53 84.3709 104.085 88.8154 104.085 94.2981C104.085 99.7807 108.53 104.225 114.013 104.225Z" fill="#CCCCCC"/>
<path d="M112.99 146.707C118.473 146.707 122.918 142.262 122.918 136.78C122.918 131.297 118.473 126.852 112.99 126.852C107.508 126.852 103.063 131.297 103.063 136.78C103.063 142.262 107.508 146.707 112.99 146.707Z" fill="#CCCCCC"/>
<path d="M240.033 21.4338H219.626C218.136 21.4338 216.707 20.8419 215.654 19.7885C214.6 18.735 214.008 17.3062 214.008 15.8164V0.743503C214.008 0.677513 214.027 0.612853 214.062 0.556949C214.097 0.501045 214.147 0.456155 214.207 0.427427C214.266 0.398698 214.332 0.387294 214.398 0.394524C214.463 0.401753 214.526 0.427323 214.577 0.4683L240.251 20.8075C240.309 20.8527 240.35 20.9146 240.371 20.9846C240.391 21.0546 240.389 21.1292 240.365 21.1981C240.341 21.2669 240.296 21.3266 240.237 21.3688C240.177 21.4111 240.106 21.4338 240.033 21.4338Z" fill="#E6E6E6"/>
<path d="M101.887 217.612L23.8694 234.057C21.6148 234.53 19.2648 234.089 17.335 232.831C15.4052 231.573 14.0531 229.601 13.5755 227.347L0.187823 163.833C-0.284759 161.579 0.156282 159.229 1.41419 157.299C2.67209 155.369 4.64413 154.017 6.89766 153.539L84.9151 137.094C87.1697 136.622 89.5197 137.063 91.4495 138.321C93.3793 139.579 94.7314 141.551 95.209 143.804L108.597 207.319C109.069 209.573 108.628 211.923 107.37 213.853C106.112 215.783 104.14 217.135 101.887 217.612Z" fill="white"/>
<path d="M101.887 217.612L23.8694 234.057C21.6148 234.53 19.2648 234.089 17.335 232.831C15.4052 231.573 14.0531 229.601 13.5755 227.347L0.187823 163.833C-0.284759 161.579 0.156282 159.229 1.41419 157.299C2.67209 155.369 4.64413 154.017 6.89766 153.539L84.9151 137.094C87.1697 136.622 89.5197 137.063 91.4495 138.321C93.3793 139.579 94.7314 141.551 95.209 143.804L108.597 207.319C109.069 209.573 108.628 211.923 107.37 213.853C106.112 215.783 104.14 217.135 101.887 217.612ZM7.1085 154.539C5.12009 154.961 3.38007 156.154 2.27015 157.857C1.16023 159.559 0.77107 161.633 1.18804 163.622L14.5757 227.136C14.9972 229.125 16.1902 230.865 17.893 231.975C19.5957 233.085 21.6693 233.474 23.6586 233.057L101.676 216.612C103.664 216.191 105.404 214.998 106.514 213.295C107.624 211.592 108.013 209.519 107.596 207.529L94.2088 144.015C93.7873 142.027 92.5943 140.287 90.8916 139.177C89.1888 138.067 87.1153 137.678 85.1259 138.095L7.1085 154.539Z" fill="#3F3D56"/>
<path d="M80.0676 158.037L40.6933 166.336C40.3487 166.416 39.9866 166.362 39.6803 166.186C39.3739 166.009 39.146 165.722 39.0428 165.384C38.9955 165.208 38.9848 165.023 39.0111 164.843C39.0374 164.662 39.1003 164.489 39.1959 164.333C39.2915 164.177 39.4178 164.043 39.5671 163.938C39.7164 163.832 39.8855 163.759 40.0642 163.721L80.1449 155.273C81.7099 156.155 81.2153 157.795 80.0671 158.037L80.0676 158.037Z" fill="#CCCCCC"/>
<path d="M81.5234 164.943L42.149 173.243C41.8045 173.323 41.4424 173.269 41.136 173.092C40.8296 172.915 40.6018 172.629 40.4985 172.291C40.4513 172.114 40.4405 171.93 40.4669 171.749C40.4932 171.569 40.5561 171.395 40.6516 171.239C40.7472 171.084 40.8735 170.949 41.0228 170.844C41.1721 170.739 41.3413 170.665 41.52 170.627L81.6007 162.179C83.1657 163.061 82.671 164.702 81.5229 164.944L81.5234 164.943Z" fill="#CCCCCC"/>
<path d="M34.4661 178.969L22.4494 181.502C22.057 181.585 21.6479 181.508 21.312 181.289C20.9761 181.07 20.7407 180.727 20.6576 180.334L17.6686 166.154C17.5863 165.761 17.6631 165.352 17.882 165.016C18.101 164.68 18.4443 164.445 18.8365 164.362L30.8532 161.829C31.2456 161.747 31.6546 161.824 31.9905 162.043C32.3264 162.262 32.5618 162.605 32.645 162.997L35.634 177.178C35.7163 177.57 35.6395 177.979 35.4206 178.315C35.2016 178.651 34.8584 178.886 34.4661 178.969V178.969Z" fill="#CCCCCC"/>
<path d="M84.3896 179.109L24.2971 191.775C23.9525 191.855 23.5905 191.801 23.2841 191.625C22.9777 191.448 22.7498 191.161 22.6466 190.823C22.5994 190.647 22.5886 190.462 22.6149 190.282C22.6413 190.101 22.7041 189.927 22.7997 189.772C22.8953 189.616 23.0216 189.482 23.1709 189.376C23.3202 189.271 23.4894 189.197 23.6681 189.16L84.4674 176.344C86.0323 177.226 85.5377 178.867 84.3896 179.109Z" fill="#CCCCCC"/>
<path d="M85.8458 186.017L25.7533 198.684C25.4087 198.764 25.0466 198.71 24.7403 198.533C24.4339 198.356 24.206 198.07 24.1028 197.732C24.0556 197.555 24.0448 197.371 24.0711 197.19C24.0974 197.009 24.1603 196.836 24.2559 196.68C24.3515 196.525 24.4778 196.39 24.6271 196.285C24.7764 196.18 24.9455 196.106 25.1243 196.068L85.9236 183.253C87.4885 184.135 86.9939 185.775 85.8458 186.017Z" fill="#CCCCCC"/>
<path d="M87.301 192.921L27.2085 205.588C26.864 205.668 26.5019 205.614 26.1955 205.437C25.8891 205.26 25.6613 204.974 25.558 204.636C25.5108 204.459 25.5 204.275 25.5264 204.094C25.5527 203.913 25.6156 203.74 25.7112 203.584C25.8067 203.429 25.933 203.294 26.0823 203.189C26.2316 203.084 26.4008 203.01 26.5795 202.972L87.3788 190.157C88.9438 191.039 88.4492 192.679 87.301 192.921Z" fill="#CCCCCC"/>
<path d="M88.7571 199.829L28.6646 212.496C28.3201 212.576 27.958 212.522 27.6516 212.345C27.3452 212.168 27.1174 211.882 27.0141 211.544C26.9669 211.367 26.9561 211.183 26.9825 211.002C27.0088 210.821 27.0717 210.648 27.1672 210.492C27.2628 210.337 27.3891 210.202 27.5384 210.097C27.6877 209.992 27.8569 209.918 28.0356 209.88L88.8349 197.065C90.3999 197.947 89.9052 199.587 88.7571 199.829Z" fill="#CCCCCC"/>
<path d="M90.2125 206.734L30.12 219.4C29.7754 219.48 29.4134 219.426 29.107 219.25C28.8006 219.073 28.5727 218.786 28.4695 218.448C28.4223 218.272 28.4115 218.087 28.4378 217.907C28.4642 217.726 28.527 217.553 28.6226 217.397C28.7182 217.241 28.8445 217.107 28.9938 217.002C29.1431 216.896 29.3123 216.823 29.491 216.785L90.2903 203.97C91.8553 204.851 91.3606 206.492 90.2125 206.734Z" fill="#CCCCCC"/>
<path d="M100.82 175.114C100.684 175.361 100.567 175.619 100.471 175.886L75.87 181.99L71.5903 177.563L64.0643 183.148L70.8789 191.723C71.4295 192.415 72.1898 192.911 73.0459 193.134C73.902 193.358 74.8075 193.298 75.6266 192.963L102.321 182.055C103.198 182.701 104.252 183.065 105.341 183.097C106.43 183.13 107.503 182.83 108.417 182.238C109.332 181.646 110.044 180.79 110.46 179.783C110.876 178.776 110.976 177.666 110.745 176.601C110.515 175.536 109.966 174.567 109.171 173.821C108.377 173.076 107.374 172.59 106.297 172.429C105.219 172.267 104.118 172.438 103.14 172.917C102.161 173.397 101.352 174.163 100.82 175.114L100.82 175.114Z" fill="#A0616A"/>
<path d="M16.848 229.44C17.615 229.203 18.3206 228.801 18.9154 228.262C19.5101 227.723 19.9794 227.06 20.2902 226.32C20.601 225.58 20.7457 224.78 20.7142 223.978C20.6828 223.176 20.4758 222.391 20.1079 221.677L37.0377 174.622L25.2806 172.538L12.3361 219.447C11.1785 220.145 10.317 221.243 9.91481 222.533C9.51259 223.823 9.59761 225.216 10.1538 226.448C10.7099 227.679 11.6986 228.664 12.9323 229.216C14.1661 229.767 15.5594 229.847 16.848 229.44Z" fill="#A0616A"/>
<path d="M34.8876 182.975L23.2792 178.519C22.9489 178.393 22.6499 178.196 22.4023 177.943C22.1548 177.691 21.9647 177.387 21.8449 177.055C21.7251 176.722 21.6785 176.367 21.7082 176.014C21.7379 175.662 21.8432 175.32 22.0169 175.012L28.1067 164.214C28.765 162.528 30.0649 161.172 31.7216 160.443C33.3782 159.714 35.2563 159.672 36.9441 160.325C38.632 160.979 39.9919 162.275 40.7257 163.929C41.4595 165.584 41.5073 167.462 40.8587 169.151L38.1726 181.212C38.0956 181.557 37.945 181.882 37.7312 182.164C37.5174 182.446 37.2454 182.678 36.9337 182.846C36.6219 183.013 36.2778 183.111 35.9247 183.133C35.5716 183.155 35.2179 183.101 34.8876 182.975V182.975Z" fill="#F50057"/>
<path d="M61.0893 317.785L67.3554 317.785L70.3361 293.616L61.0883 293.616L61.0893 317.785Z" fill="#A0616A"/>
<path d="M59.4908 315.739L71.8308 315.739H71.8313C72.864 315.739 73.8866 315.942 74.8407 316.337C75.7948 316.732 76.6618 317.312 77.392 318.042C78.1222 318.772 78.7015 319.639 79.0967 320.593C79.4919 321.547 79.6953 322.57 79.6953 323.603V323.858L59.4912 323.859L59.4908 315.739Z" fill="#2F2E41"/>
<path d="M25.8234 317.785L32.0894 317.785L35.0702 293.616L25.8223 293.616L25.8234 317.785Z" fill="#A0616A"/>
<path d="M24.2249 315.739L36.5648 315.739H36.5653C37.5981 315.739 38.6207 315.942 39.5748 316.337C40.5289 316.732 41.3958 317.312 42.1261 318.042C42.8563 318.772 43.4356 319.639 43.8308 320.593C44.226 321.547 44.4294 322.57 44.4294 323.603V323.858L24.2253 323.859L24.2249 315.739Z" fill="#2F2E41"/>
<path d="M32.3922 308.057H24.4626C24.1514 308.057 23.8434 307.994 23.5573 307.872C23.2712 307.749 23.013 307.57 22.7982 307.344C22.5834 307.119 22.4166 306.853 22.3078 306.561C22.199 306.27 22.1505 305.959 22.1653 305.648L25.9318 224.724L26.1691 224.718L64.4604 223.72L71.9533 304.69C71.9821 304.993 71.9503 305.299 71.8597 305.591C71.7691 305.882 71.6215 306.152 71.4255 306.386C71.2295 306.619 70.989 306.811 70.7181 306.951C70.4471 307.091 70.1511 307.175 69.8471 307.2L60.9406 307.912C60.381 307.957 59.8245 307.795 59.3758 307.458C58.9271 307.121 58.6171 306.631 58.5041 306.081L47.1115 248.441C47.0804 248.266 46.9876 248.108 46.8498 247.995C46.712 247.883 46.5385 247.824 46.3607 247.828H46.3576C46.1792 247.824 46.0053 247.885 45.8677 247.998C45.7301 248.112 45.638 248.271 45.6082 248.447L34.6488 306.202C34.545 306.724 34.2635 307.194 33.8521 307.533C33.4407 307.871 32.9248 308.056 32.3922 308.057Z" fill="#2F2E41"/>
<path d="M46.9175 152.551C53.8504 152.551 59.4707 146.931 59.4707 139.998C59.4707 133.065 53.8504 127.445 46.9175 127.445C39.9846 127.445 34.3643 133.065 34.3643 139.998C34.3643 146.931 39.9846 152.551 46.9175 152.551Z" fill="#A0616A"/>
<path d="M42.7083 234.208C36.7252 234.208 30.5797 232.635 25.4852 227.985C25.2141 227.739 25.0048 227.433 24.8743 227.091C24.7438 226.749 24.6958 226.382 24.7341 226.018C25.2794 221.118 27.9245 195.821 26.4349 178.923C26.1442 175.767 26.5911 172.586 27.7402 169.632C28.8894 166.678 30.7093 164.031 33.0565 161.901C35.3626 159.776 38.131 158.215 41.1434 157.343C44.1558 156.471 47.3297 156.31 50.4146 156.875H50.4147C50.5711 156.903 50.7273 156.932 50.8838 156.962C60.9338 158.907 67.9167 168.208 67.1265 178.598C65.9736 193.757 64.94 214.262 66.5629 225.858C66.6302 226.332 66.5473 226.816 66.326 227.241C66.1047 227.666 65.756 228.011 65.3287 228.228C61.6361 230.093 52.3845 234.208 42.7083 234.208Z" fill="#F50057"/>
<path d="M59.0887 183.878C58.7941 183.682 58.5453 183.425 58.3593 183.124C58.1732 182.823 58.0542 182.485 58.0105 182.134L56.4811 169.873C55.9956 168.129 56.2214 166.264 57.1089 164.687C57.9964 163.109 59.4732 161.948 61.2155 161.458C62.9579 160.967 64.8235 161.188 66.4035 162.071C67.9835 162.954 69.1489 164.428 69.6441 166.169L74.6816 177.495C74.8254 177.818 74.8978 178.169 74.8939 178.523C74.89 178.876 74.8099 179.225 74.659 179.545C74.5082 179.865 74.2901 180.149 74.0198 180.377C73.7494 180.605 73.433 180.772 73.0922 180.867L61.1134 184.201C60.7725 184.296 60.4152 184.316 60.0658 184.26C59.7163 184.205 59.3831 184.074 59.0887 183.878Z" fill="#F50057"/>
<path d="M42.5353 152.374C41.3471 152.396 40.1663 152.182 39.0612 151.745C38.575 151.558 38.0702 151.404 37.5848 151.216C33.2984 149.56 30.4748 144.995 30.3737 140.401C30.2725 135.807 32.6517 131.348 36.1845 128.409C39.7172 125.471 44.2931 123.962 48.875 123.613C53.8105 123.237 59.368 124.489 62.1259 128.599C62.8601 129.693 63.3735 131.021 62.9385 132.342C62.8082 132.74 62.5755 133.098 62.2637 133.378C61.032 134.474 59.8041 133.65 58.5486 133.577C56.8228 133.477 55.2728 134.874 54.7157 136.511C54.1586 138.147 54.4038 139.949 54.8537 141.618C55.1963 142.622 55.4124 143.665 55.4968 144.723C55.5331 145.254 55.4333 145.784 55.2069 146.266C54.9805 146.747 54.6351 147.162 54.2032 147.472C53.1248 148.124 51.7086 147.747 50.6296 147.096C49.5506 146.445 48.6182 145.54 47.4527 145.061C46.2872 144.582 44.7213 144.689 44.0429 145.75C43.8273 146.137 43.6814 146.558 43.6118 146.995C43.0037 149.766 43.1434 149.603 42.5353 152.374V152.374Z" fill="#2F2E41"/>
<path d="M97.9616 324.549H0.85244C0.716887 324.549 0.586887 324.495 0.491037 324.399C0.395187 324.303 0.341339 324.173 0.341339 324.038C0.341339 323.902 0.395187 323.772 0.491037 323.676C0.586887 323.581 0.716887 323.527 0.85244 323.527H97.9616C98.0971 323.527 98.2271 323.581 98.323 323.676C98.4188 323.772 98.4727 323.902 98.4727 324.038C98.4727 324.173 98.4188 324.303 98.323 324.399C98.2271 324.495 98.0971 324.549 97.9616 324.549Z" fill="#CCCCCC"/>
<path d="M346.532 219.073L276.993 258.079C274.983 259.203 272.609 259.485 270.391 258.861C268.174 258.237 266.294 256.759 265.165 254.751L233.41 198.139C232.285 196.129 232.004 193.755 232.628 191.537C233.252 189.319 234.729 187.44 236.737 186.311L306.276 147.305C308.287 146.18 310.661 145.899 312.879 146.523C315.096 147.146 316.976 148.624 318.105 150.632L349.86 207.244C350.985 209.255 351.266 211.629 350.642 213.847C350.018 216.064 348.54 217.944 346.532 219.073Z" fill="white"/>
<path d="M346.532 219.073L276.993 258.079C274.983 259.203 272.609 259.485 270.391 258.861C268.174 258.237 266.294 256.759 265.165 254.751L233.41 198.139C232.285 196.129 232.004 193.755 232.628 191.537C233.252 189.319 234.729 187.44 236.737 186.311L306.276 147.305C308.287 146.18 310.661 145.899 312.879 146.523C315.096 147.146 316.976 148.624 318.105 150.632L349.86 207.244C350.985 209.255 351.266 211.629 350.642 213.847C350.018 216.064 348.54 217.944 346.532 219.073ZM237.237 187.202C235.466 188.199 234.162 189.857 233.611 191.814C233.061 193.77 233.309 195.865 234.301 197.639L266.056 254.251C267.053 256.023 268.711 257.327 270.668 257.877C272.624 258.428 274.719 258.179 276.493 257.187L346.032 218.181C347.804 217.185 349.108 215.526 349.658 213.57C350.209 211.613 349.961 209.518 348.968 207.744L317.214 151.132C316.217 149.361 314.559 148.057 312.602 147.506C310.645 146.956 308.55 147.204 306.777 148.196L237.237 187.202Z" fill="#3F3D56"/>
<path d="M307.908 168.739L272.813 188.425C272.508 188.604 272.146 188.661 271.801 188.584C271.456 188.506 271.153 188.301 270.953 188.009C270.855 187.855 270.79 187.682 270.761 187.502C270.732 187.322 270.74 187.137 270.785 186.96C270.83 186.783 270.91 186.617 271.021 186.472C271.132 186.327 271.272 186.206 271.431 186.117L307.156 166.078C308.913 166.452 308.931 168.165 307.908 168.739L307.908 168.739Z" fill="#CCCCCC"/>
<path d="M311.361 174.895L276.266 194.581C275.961 194.76 275.599 194.817 275.254 194.74C274.909 194.662 274.606 194.457 274.406 194.165C274.308 194.011 274.243 193.838 274.214 193.658C274.185 193.478 274.194 193.293 274.238 193.116C274.283 192.939 274.363 192.773 274.474 192.628C274.585 192.483 274.725 192.362 274.884 192.273L310.609 172.234C312.366 172.608 312.384 174.321 311.361 174.895L311.361 174.895Z" fill="#CCCCCC"/>
<path d="M270.645 202.341L259.934 208.349C259.584 208.545 259.171 208.594 258.785 208.485C258.399 208.377 258.072 208.12 257.875 207.77L250.786 195.13C250.59 194.78 250.541 194.367 250.649 193.981C250.758 193.595 251.015 193.268 251.365 193.072L262.076 187.064C262.425 186.868 262.839 186.819 263.225 186.928C263.611 187.036 263.938 187.293 264.134 187.643L271.224 200.282C271.42 200.632 271.469 201.046 271.36 201.432C271.252 201.818 270.995 202.145 270.645 202.341L270.645 202.341Z" fill="#CCCCCC"/>
<path d="M318.329 187.557L264.767 217.601C264.462 217.78 264.101 217.837 263.755 217.76C263.41 217.682 263.107 217.477 262.908 217.185C262.81 217.031 262.744 216.858 262.716 216.678C262.687 216.498 262.695 216.313 262.74 216.136C262.784 215.959 262.865 215.793 262.976 215.648C263.087 215.503 263.226 215.382 263.385 215.293L317.577 184.895C319.334 185.269 319.353 186.983 318.329 187.557Z" fill="#CCCCCC"/>
<path d="M321.783 193.714L268.221 223.758C267.916 223.938 267.555 223.994 267.209 223.917C266.864 223.84 266.561 223.635 266.362 223.343C266.264 223.189 266.198 223.016 266.17 222.836C266.141 222.655 266.149 222.471 266.194 222.294C266.238 222.117 266.319 221.951 266.43 221.806C266.541 221.661 266.68 221.54 266.839 221.45L321.032 191.053C322.789 191.427 322.807 193.14 321.783 193.714V193.714Z" fill="#CCCCCC"/>
<path d="M325.235 199.868L271.673 229.912C271.368 230.091 271.006 230.148 270.661 230.071C270.316 229.994 270.013 229.789 269.813 229.497C269.716 229.342 269.65 229.17 269.621 228.99C269.592 228.809 269.601 228.625 269.645 228.448C269.69 228.271 269.77 228.105 269.881 227.96C269.992 227.814 270.132 227.694 270.291 227.604L324.483 197.207C326.24 197.581 326.259 199.294 325.235 199.868Z" fill="#CCCCCC"/>
<path d="M328.689 206.025L275.127 236.07C274.822 236.249 274.46 236.306 274.115 236.228C273.77 236.151 273.467 235.946 273.267 235.654C273.169 235.5 273.104 235.327 273.075 235.147C273.046 234.966 273.054 234.782 273.099 234.605C273.144 234.428 273.224 234.262 273.335 234.117C273.446 233.972 273.586 233.851 273.745 233.762L327.937 203.364C329.694 203.738 329.712 205.451 328.689 206.025H328.689Z" fill="#CCCCCC"/>
<path d="M332.141 212.18L278.579 242.224C278.274 242.403 277.912 242.46 277.567 242.383C277.222 242.306 276.919 242.1 276.719 241.808C276.621 241.654 276.556 241.481 276.527 241.301C276.498 241.121 276.506 240.936 276.551 240.759C276.596 240.582 276.676 240.416 276.787 240.271C276.898 240.126 277.038 240.005 277.197 239.916L331.389 209.518C333.146 209.892 333.164 211.606 332.141 212.18V212.18Z" fill="#CCCCCC"/>
<path d="M322.796 235.242C323.088 234.599 323.235 233.899 323.227 233.193C323.219 232.487 323.057 231.791 322.751 231.154C322.444 230.517 322.003 229.955 321.456 229.508C320.909 229.061 320.271 228.739 319.587 228.564L318.13 211.456L311.125 216.982L313.582 232.382C313.366 233.551 313.586 234.759 314.201 235.777C314.816 236.795 315.783 237.552 316.919 237.905C318.054 238.257 319.28 238.181 320.363 237.69C321.447 237.2 322.312 236.328 322.796 235.242Z" fill="#FFB8B8"/>
<path d="M318.262 226.773L312.444 227.467C312.149 227.502 311.849 227.476 311.564 227.39C311.279 227.304 311.015 227.16 310.788 226.967C310.561 226.774 310.377 226.537 310.246 226.269C310.115 226.002 310.041 225.71 310.028 225.413L309.18 205.785L298.152 175.658C297.71 174.723 297.508 173.693 297.565 172.66C297.623 171.628 297.937 170.626 298.479 169.746C298.75 169.321 299.059 168.921 299.403 168.554C300.082 167.823 300.928 167.267 301.867 166.933C302.807 166.599 303.814 166.498 304.802 166.637C305.819 166.772 306.79 167.148 307.633 167.734C308.476 168.32 309.167 169.098 309.649 170.005L316.841 185.075C319.849 191.379 321.269 198.323 320.978 205.301L320.167 224.717C320.145 225.225 319.946 225.709 319.603 226.085C319.26 226.46 318.795 226.702 318.291 226.769L318.262 226.773Z" fill="#F50057"/>
<path d="M338.924 311.6L333.53 313.967L321.831 294.288L329.792 290.794L338.924 311.6Z" fill="#FFB8B8"/>
<path d="M342.595 316.225L325.202 323.859L325.106 323.639C324.716 322.75 324.504 321.793 324.484 320.822C324.464 319.851 324.635 318.886 324.987 317.982C325.34 317.077 325.867 316.251 326.539 315.55C327.211 314.849 328.015 314.288 328.904 313.898L328.904 313.897L339.527 309.235L342.595 316.225Z" fill="#2F2E41"/>
<path d="M266.507 318.148H260.616L257.813 295.426L266.508 295.427L266.507 318.148Z" fill="#FFB8B8"/>
<path d="M268.009 323.859L249.014 323.858V323.618C249.014 322.647 249.206 321.686 249.577 320.789C249.949 319.892 250.493 319.077 251.18 318.39C251.866 317.704 252.681 317.159 253.578 316.788C254.475 316.416 255.437 316.225 256.408 316.225H256.408L268.009 316.225L268.009 323.859Z" fill="#2F2E41"/>
<path d="M323.86 310.381L291.044 237.149C290.985 237.011 290.884 236.896 290.757 236.818C290.629 236.741 290.48 236.705 290.331 236.715C290.182 236.726 290.04 236.782 289.924 236.877C289.809 236.972 289.726 237.101 289.687 237.245L269.692 307.978C269.56 308.473 269.256 308.905 268.834 309.196C268.412 309.486 267.9 309.616 267.39 309.563L256.47 308.471C255.908 308.412 255.39 308.136 255.028 307.701C254.665 307.267 254.487 306.709 254.529 306.144C258.002 262.944 263.478 222.172 279.881 195.481L279.968 195.339L304.778 200.204L337.902 305.682C338.066 306.225 338.01 306.811 337.747 307.314C337.484 307.817 337.035 308.197 336.496 308.372L326.507 311.583C325.996 311.749 325.44 311.718 324.95 311.496C324.46 311.273 324.071 310.875 323.86 310.381Z" fill="#2F2E41"/>
<path d="M291.96 157.968C298.478 157.968 303.761 152.684 303.761 146.166C303.761 139.648 298.478 134.365 291.96 134.365C285.442 134.365 280.158 139.648 280.158 146.166C280.158 152.684 285.442 157.968 291.96 157.968Z" fill="#FFB8B8"/>
<path d="M278.356 197.524L278.205 197.493L278.17 197.344C276.58 190.631 276.542 183.304 278.057 175.568C278.826 171.615 280.965 168.059 284.097 165.528C287.23 162.996 291.156 161.652 295.183 161.731C299.552 161.819 303.722 163.574 306.841 166.636C309.959 169.699 311.789 173.837 311.956 178.204C312.462 191.509 307.025 203.043 306.97 203.158L306.889 203.327L278.356 197.524Z" fill="#F50057"/>
<path d="M246.719 219.976C247.417 219.873 248.085 219.618 248.675 219.228C249.264 218.839 249.761 218.326 250.13 217.723C250.5 217.121 250.733 216.446 250.813 215.744C250.893 215.042 250.818 214.331 250.594 213.661L264.187 203.171L255.747 200.275L244.133 210.681C243.032 211.133 242.136 211.972 241.613 213.04C241.091 214.109 240.978 215.331 241.297 216.477C241.616 217.623 242.344 218.612 243.343 219.257C244.342 219.902 245.543 220.158 246.719 219.976V219.976Z" fill="#FFB8B8"/>
<path d="M254.143 212.064C253.701 212.326 253.179 212.421 252.673 212.332C252.167 212.242 251.709 211.975 251.383 211.578L247.648 207.063C247.459 206.833 247.318 206.567 247.236 206.281C247.154 205.995 247.132 205.695 247.171 205.4C247.21 205.105 247.31 204.821 247.464 204.566C247.618 204.311 247.823 204.091 248.066 203.919L264.106 192.576L283.459 166.988C284.006 166.11 284.763 165.382 285.662 164.871C286.561 164.36 287.573 164.082 288.607 164.061C289.111 164.058 289.614 164.102 290.109 164.192C291.091 164.367 292.017 164.776 292.806 165.386C293.596 165.995 294.227 166.787 294.644 167.692C295.082 168.621 295.291 169.641 295.255 170.666C295.219 171.692 294.939 172.695 294.438 173.591L280.108 196.798L280.077 196.849L254.143 212.064Z" fill="#F50057"/>
<path d="M294.07 145.434C293.2 144.003 291.281 143.599 289.614 143.762C287.948 143.925 286.327 144.511 284.653 144.498C280.003 144.462 276.415 138.795 278.369 134.577C279.972 131.117 283.976 129.598 287.598 128.405C295.192 125.905 303.915 123.503 310.806 127.557C313.002 128.887 314.803 130.779 316.024 133.038C317.244 135.297 317.839 137.84 317.747 140.406C317.592 143.596 316.37 146.873 317.404 149.895C318.596 153.382 322.375 155.252 325.947 156.157C332.208 157.743 338.81 157.488 345.11 158.911C351.411 160.333 357.867 164.111 359.565 170.343C360.681 174.436 359.517 178.843 357.589 182.622C355.622 186.478 352.889 189.892 349.557 192.654C346.225 195.417 342.364 197.47 338.21 198.689C334.057 199.907 329.698 200.264 325.402 199.739C321.105 199.214 316.961 197.818 313.223 195.635C305.606 191.188 300.107 183.671 296.829 175.483C294.97 170.706 293.661 165.733 292.928 160.661C292.194 155.912 292.817 151.114 294.147 146.496C294.21 146.324 294.235 146.14 294.222 145.957C294.209 145.774 294.157 145.596 294.07 145.434Z" fill="#2F2E41"/>
<path d="M336.646 324.549H239.536C239.401 324.549 239.271 324.495 239.175 324.399C239.079 324.303 239.025 324.173 239.025 324.038C239.025 323.902 239.079 323.772 239.175 323.676C239.271 323.581 239.401 323.527 239.536 323.527H336.646C336.781 323.527 336.911 323.581 337.007 323.676C337.103 323.772 337.157 323.902 337.157 324.038C337.157 324.173 337.103 324.303 337.007 324.399C336.911 324.495 336.781 324.549 336.646 324.549Z" fill="#CCCCCC"/>
</g>
<defs>
<clipPath id="clip0">
<rect width="360" height="324.549" fill="white"/>
</clipPath>
</defs>
</svg>
